<?xml version="1.0" encoding="UTF-8" standalone="no"?>
<!DOCTYPE svg PUBLIC "-//W3C//DTD SVG 1.1//EN"
 "http://www.w3.org/Graphics/SVG/1.1/DTD/svg11.dtd">
<!-- Generated by graphviz version 12.1.2 (20240928.0832)
 -->
<!-- Title: GraphOfConvexSets Pages: 1 -->
<svg width="492pt" height="929pt"
 viewBox="0.00 0.00 492.14 929.00" xmlns="http://www.w3.org/2000/svg" xmlns:xlink="http://www.w3.org/1999/xlink">
<g id="graph0" class="graph" transform="scale(1 1) rotate(0) translate(4 925)">
<title>GraphOfConvexSets</title>
<polygon fill="white" stroke="none" points="-4,4 -4,-925 488.14,-925 488.14,4 -4,4"/>
<!-- v2 -->
<g id="node1" class="node">
<title>v2</title>
<ellipse fill="none" stroke="black" cx="249" cy="-637.5" rx="31.9" ry="18"/>
<text text-anchor="middle" x="249" y="-632.45" font-family="Times,serif" font-size="14.00">target</text>
</g>
<!-- v3 -->
<g id="node2" class="node">
<title>v3</title>
<ellipse fill="none" stroke="black" cx="442" cy="-372" rx="42.14" ry="18"/>
<text text-anchor="middle" x="442" y="-366.95" font-family="Times,serif" font-size="14.00">s&#45;s&#45;front</text>
</g>
<!-- v15 -->
<g id="node14" class="node">
<title>v15</title>
<ellipse fill="none" stroke="black" cx="341" cy="-460.5" rx="29.86" ry="18"/>
<text text-anchor="middle" x="341" y="-455.45" font-family="Times,serif" font-size="14.00">*&#45;s&#45;*</text>
</g>
<!-- v3&#45;&gt;v15 -->
<g id="edge2" class="edge">
<title>v3&#45;&gt;v15</title>
<path fill="none" stroke="black" d="M437.41,-390.12C433.71,-401.11 427.53,-415.06 418,-424.5 407.13,-435.26 392.36,-443.06 378.66,-448.53"/>
<polygon fill="black" stroke="black" points="377.62,-445.18 369.42,-451.9 380.02,-451.76 377.62,-445.18"/>
<text text-anchor="middle" x="436.06" y="-411.2" font-family="Times,serif" font-size="14.00">e1</text>
</g>
<!-- v16 -->
<g id="node15" class="node">
<title>v16</title>
<ellipse fill="none" stroke="black" cx="439" cy="-283.5" rx="29.86" ry="18"/>
<text text-anchor="middle" x="439" y="-278.45" font-family="Times,serif" font-size="14.00">s&#45;*&#45;*</text>
</g>
<!-- v3&#45;&gt;v16 -->
<g id="edge26" class="edge">
<title>v3&#45;&gt;v16</title>
<path fill="none" stroke="black" d="M429.26,-354.44C425.71,-348.88 422.32,-342.45 420.5,-336 418.16,-327.7 419.8,-318.82 422.9,-310.8"/>
<polygon fill="black" stroke="black" points="425.99,-312.45 427.13,-301.92 419.67,-309.44 425.99,-312.45"/>
<text text-anchor="middle" x="430.25" y="-322.7" font-family="Times,serif" font-size="14.00">e25</text>
</g>
<!-- v4 -->
<g id="node3" class="node">
<title>v4</title>
<ellipse fill="none" stroke="black" cx="159" cy="-549" rx="50.33" ry="18"/>
<text text-anchor="middle" x="159" y="-543.95" font-family="Times,serif" font-size="14.00">m&#45;r2&#45;front</text>
</g>
<!-- v18 -->
<g id="node17" class="node">
<title>v18</title>
<ellipse fill="none" stroke="black" cx="162" cy="-637.5" rx="33.95" ry="18"/>
<text text-anchor="middle" x="162" y="-632.45" font-family="Times,serif" font-size="14.00">m&#45;*&#45;*</text>
</g>
<!-- v4&#45;&gt;v18 -->
<g id="edge30" class="edge">
<title>v4&#45;&gt;v18</title>
<path fill="none" stroke="black" d="M159.6,-567.35C160.01,-579.06 160.55,-594.79 161.02,-608.28"/>
<polygon fill="black" stroke="black" points="157.51,-608.03 161.35,-617.9 164.51,-607.78 157.51,-608.03"/>
<text text-anchor="middle" x="170.52" y="-588.2" font-family="Times,serif" font-size="14.00">e29</text>
</g>
<!-- v19 -->
<g id="node18" class="node">
<title>v19</title>
<ellipse fill="none" stroke="black" cx="159" cy="-460.5" rx="33.95" ry="18"/>
<text text-anchor="middle" x="159" y="-455.45" font-family="Times,serif" font-size="14.00">*&#45;r2&#45;*</text>
</g>
<!-- v4&#45;&gt;v19 -->
<g id="edge10" class="edge">
<title>v4&#45;&gt;v19</title>
<path fill="none" stroke="black" d="M149.05,-531.11C146.28,-525.53 143.65,-519.18 142.25,-513 140.63,-505.85 140.63,-503.65 142.25,-496.5 142.85,-493.84 143.69,-491.14 144.66,-488.49"/>
<polygon fill="black" stroke="black" points="147.83,-489.99 148.62,-479.42 141.41,-487.18 147.83,-489.99"/>
<text text-anchor="middle" x="148.62" y="-499.7" font-family="Times,serif" font-size="14.00">e9</text>
</g>
<!-- v5 -->
<g id="node4" class="node">
<title>v5</title>
<ellipse fill="none" stroke="black" cx="116" cy="-726" rx="45.21" ry="18"/>
<text text-anchor="middle" x="116" y="-720.95" font-family="Times,serif" font-size="14.00">m&#45;t&#45;front</text>
</g>
<!-- v5&#45;&gt;v18 -->
<g id="edge32" class="edge">
<title>v5&#45;&gt;v18</title>
<path fill="none" stroke="black" d="M111.02,-707.86C108.95,-697.38 108.12,-684.02 113.5,-673.5 116.82,-667.01 121.97,-661.45 127.69,-656.79"/>
<polygon fill="black" stroke="black" points="129.6,-659.72 135.74,-651.09 125.56,-654.01 129.6,-659.72"/>
<text text-anchor="middle" x="123.25" y="-676.7" font-family="Times,serif" font-size="14.00">e31</text>
</g>
<!-- v21 -->
<g id="node20" class="node">
<title>v21</title>
<ellipse fill="none" stroke="black" cx="152" cy="-814.5" rx="28.83" ry="18"/>
<text text-anchor="middle" x="152" y="-809.45" font-family="Times,serif" font-size="14.00">*&#45;t&#45;*</text>
</g>
<!-- v5&#45;&gt;v21 -->
<g id="edge14" class="edge">
<title>v5&#45;&gt;v21</title>
<path fill="none" stroke="black" d="M108.27,-743.97C104.7,-754.38 102.27,-767.74 107.5,-778.5 110.71,-785.11 115.85,-790.85 121.51,-795.66"/>
<polygon fill="black" stroke="black" points="119.3,-798.38 129.42,-801.54 123.48,-792.77 119.3,-798.38"/>
<text text-anchor="middle" x="117.25" y="-765.2" font-family="Times,serif" font-size="14.00">e13</text>
</g>
<!-- v6 -->
<g id="node5" class="node">
<title>v6</title>
<ellipse fill="none" stroke="black" cx="282" cy="-195" rx="45.21" ry="18"/>
<text text-anchor="middle" x="282" y="-189.95" font-family="Times,serif" font-size="14.00">l&#45;m&#45;front</text>
</g>
<!-- v17 -->
<g id="node16" class="node">
<title>v17</title>
<ellipse fill="none" stroke="black" cx="277" cy="-106.5" rx="33.95" ry="18"/>
<text text-anchor="middle" x="277" y="-101.45" font-family="Times,serif" font-size="14.00">*&#45;m&#45;*</text>
</g>
<!-- v6&#45;&gt;v17 -->
<g id="edge22" class="edge">
<title>v6&#45;&gt;v17</title>
<path fill="none" stroke="black" d="M267.5,-177.68C263.46,-172.13 259.6,-165.65 257.5,-159 254.89,-150.73 256.58,-141.85 259.85,-133.83"/>
<polygon fill="black" stroke="black" points="262.97,-135.43 264.35,-124.92 256.72,-132.27 262.97,-135.43"/>
<text text-anchor="middle" x="267.25" y="-145.7" font-family="Times,serif" font-size="14.00">e21</text>
</g>
<!-- v20 -->
<g id="node19" class="node">
<title>v20</title>
<ellipse fill="none" stroke="black" cx="208" cy="-283.5" rx="28.83" ry="18"/>
<text text-anchor="middle" x="208" y="-278.45" font-family="Times,serif" font-size="14.00">l&#45;*&#45;*</text>
</g>
<!-- v6&#45;&gt;v20 -->
<g id="edge38" class="edge">
<title>v6&#45;&gt;v20</title>
<path fill="none" stroke="black" d="M278.23,-213.15C275.21,-223.89 270.11,-237.53 262,-247.5 256.1,-254.75 248.29,-261 240.44,-266.13"/>
<polygon fill="black" stroke="black" points="238.7,-263.09 231.93,-271.24 242.31,-269.09 238.7,-263.09"/>
<text text-anchor="middle" x="281.1" y="-234.2" font-family="Times,serif" font-size="14.00">e37</text>
</g>
<!-- v7 -->
<g id="node6" class="node">
<title>v7</title>
<ellipse fill="none" stroke="black" cx="63" cy="-195" rx="40.09" ry="18"/>
<text text-anchor="middle" x="63" y="-189.95" font-family="Times,serif" font-size="14.00">l&#45;t&#45;front</text>
</g>
<!-- v7&#45;&gt;v20 -->
<g id="edge40" class="edge">
<title>v7&#45;&gt;v20</title>
<path fill="none" stroke="black" d="M81.14,-211.34C94.52,-222.24 113.47,-236.77 131.5,-247.5 144.77,-255.4 160.13,-262.74 173.59,-268.64"/>
<polygon fill="black" stroke="black" points="171.93,-271.74 182.5,-272.45 174.68,-265.31 171.93,-271.74"/>
<text text-anchor="middle" x="141.25" y="-234.2" font-family="Times,serif" font-size="14.00">e39</text>
</g>
<!-- v7&#45;&gt;v21 -->
<g id="edge16" class="edge">
<title>v7&#45;&gt;v21</title>
<path fill="none" stroke="black" d="M56.67,-212.96C50.81,-230.21 43,-257.84 43,-282.5 43,-727 43,-727 43,-727 43,-764.93 83.99,-788.87 115.7,-801.71"/>
<polygon fill="black" stroke="black" points="114.44,-804.98 125.03,-805.26 116.93,-798.43 114.44,-804.98"/>
<text text-anchor="middle" x="52.75" y="-499.7" font-family="Times,serif" font-size="14.00">e15</text>
</g>
<!-- v8 -->
<g id="node7" class="node">
<title>v8</title>
<ellipse fill="none" stroke="black" cx="287" cy="-903" rx="40.09" ry="18"/>
<text text-anchor="middle" x="287" y="-897.95" font-family="Times,serif" font-size="14.00">t&#45;t&#45;front</text>
</g>
<!-- v8&#45;&gt;v2 -->
<g id="edge49" class="edge">
<title>v8&#45;&gt;v2</title>
<path fill="none" stroke="black" d="M286.29,-884.74C284.67,-850.68 279.9,-772.57 268,-708 265.43,-694.06 261.41,-678.84 257.73,-666.21"/>
<polygon fill="black" stroke="black" points="261.17,-665.47 254.94,-656.9 254.46,-667.48 261.17,-665.47"/>
<text text-anchor="middle" x="287.69" y="-765.2" font-family="Times,serif" font-size="14.00">e48</text>
</g>
<!-- v8&#45;&gt;v21 -->
<g id="edge18" class="edge">
<title>v8&#45;&gt;v21</title>
<path fill="none" stroke="black" d="M249.97,-895.98C228.75,-891.04 202.62,-882.27 183.5,-867 175.38,-860.51 168.82,-851.32 163.83,-842.49"/>
<polygon fill="black" stroke="black" points="167.07,-841.13 159.4,-833.83 160.84,-844.33 167.07,-841.13"/>
<text text-anchor="middle" x="193.25" y="-853.7" font-family="Times,serif" font-size="14.00">e17</text>
</g>
<!-- v22 -->
<g id="node21" class="node">
<title>v22</title>
<ellipse fill="none" stroke="black" cx="344" cy="-637.5" rx="28.83" ry="18"/>
<text text-anchor="middle" x="344" y="-632.45" font-family="Times,serif" font-size="14.00">t&#45;*&#45;*</text>
</g>
<!-- v8&#45;&gt;v22 -->
<g id="edge46" class="edge">
<title>v8&#45;&gt;v22</title>
<path fill="none" stroke="black" d="M293.71,-884.77C307.19,-849.11 337.1,-764.32 347,-690 347.98,-682.63 348.01,-674.63 347.6,-667.17"/>
<polygon fill="black" stroke="black" points="351.09,-666.91 346.76,-657.24 344.12,-667.49 351.09,-666.91"/>
<text text-anchor="middle" x="342.21" y="-765.2" font-family="Times,serif" font-size="14.00">e45</text>
</g>
<!-- v9 -->
<g id="node8" class="node">
<title>v9</title>
<ellipse fill="none" stroke="black" cx="401" cy="-195" rx="41.63" ry="18"/>
<text text-anchor="middle" x="401" y="-189.95" font-family="Times,serif" font-size="14.00">s&#45;s&#45;back</text>
</g>
<!-- v9&#45;&gt;v15 -->
<g id="edge4" class="edge">
<title>v9&#45;&gt;v15</title>
<path fill="none" stroke="black" d="M397.05,-213.35C386.9,-257.9 359.87,-376.64 347.43,-431.27"/>
<polygon fill="black" stroke="black" points="344.08,-430.21 345.27,-440.74 350.91,-431.76 344.08,-430.21"/>
<text text-anchor="middle" x="378.76" y="-322.7" font-family="Times,serif" font-size="14.00">e3</text>
</g>
<!-- v9&#45;&gt;v16 -->
<g id="edge28" class="edge">
<title>v9&#45;&gt;v16</title>
<path fill="none" stroke="black" d="M414.56,-212.3C418.72,-217.95 422.99,-224.5 426,-231 429.35,-238.22 431.91,-246.43 433.85,-254.14"/>
<polygon fill="black" stroke="black" points="430.4,-254.78 435.99,-263.78 437.24,-253.26 430.4,-254.78"/>
<text text-anchor="middle" x="441.76" y="-234.2" font-family="Times,serif" font-size="14.00">e27</text>
</g>
<!-- v10 -->
<g id="node9" class="node">
<title>v10</title>
<ellipse fill="none" stroke="black" cx="312" cy="-549" rx="45.72" ry="18"/>
<text text-anchor="middle" x="312" y="-543.95" font-family="Times,serif" font-size="14.00">m&#45;s&#45;back</text>
</g>
<!-- v10&#45;&gt;v15 -->
<g id="edge6" class="edge">
<title>v10&#45;&gt;v15</title>
<path fill="none" stroke="black" d="M306.51,-530.72C304.17,-520.44 302.88,-507.32 307.25,-496.5 309.15,-491.79 312.02,-487.37 315.3,-483.35"/>
<polygon fill="black" stroke="black" points="317.57,-486.04 321.87,-476.36 312.47,-481.24 317.57,-486.04"/>
<text text-anchor="middle" x="313.62" y="-499.7" font-family="Times,serif" font-size="14.00">e5</text>
</g>
<!-- v10&#45;&gt;v18 -->
<g id="edge34" class="edge">
<title>v10&#45;&gt;v18</title>
<path fill="none" stroke="black" d="M309.23,-567.28C306.51,-578.63 301.2,-592.93 291,-601.5 262.1,-625.78 244.24,-608.93 208,-619.5 205.11,-620.34 202.14,-621.28 199.17,-622.26"/>
<polygon fill="black" stroke="black" points="198.26,-618.87 189.97,-625.47 200.57,-625.48 198.26,-618.87"/>
<text text-anchor="middle" x="312.36" y="-588.2" font-family="Times,serif" font-size="14.00">e33</text>
</g>
<!-- v11 -->
<g id="node10" class="node">
<title>v11</title>
<ellipse fill="none" stroke="black" cx="127" cy="-372" rx="49.82" ry="18"/>
<text text-anchor="middle" x="127" y="-366.95" font-family="Times,serif" font-size="14.00">m&#45;r2&#45;back</text>
</g>
<!-- v11&#45;&gt;v18 -->
<g id="edge36" class="edge">
<title>v11&#45;&gt;v18</title>
<path fill="none" stroke="black" d="M150.49,-388.17C158.64,-393.92 167.58,-400.83 175,-408 216.64,-448.25 212.83,-473.32 218,-531 219.43,-546.94 223.32,-551.91 218,-567 211.76,-584.69 198.9,-601.19 187.07,-613.67"/>
<polygon fill="black" stroke="black" points="184.79,-611.01 180.21,-620.56 189.75,-615.95 184.79,-611.01"/>
<text text-anchor="middle" x="226.23" y="-499.7" font-family="Times,serif" font-size="14.00">e35</text>
</g>
<!-- v11&#45;&gt;v19 -->
<g id="edge12" class="edge">
<title>v11&#45;&gt;v19</title>
<path fill="none" stroke="black" d="M138,-389.95C141.26,-395.53 144.6,-401.88 147,-408 149.9,-415.38 152.2,-423.64 153.99,-431.34"/>
<polygon fill="black" stroke="black" points="150.53,-431.87 156,-440.95 157.38,-430.44 150.53,-431.87"/>
<text text-anchor="middle" x="161.68" y="-411.2" font-family="Times,serif" font-size="14.00">e11</text>
</g>
<!-- v12 -->
<g id="node11" class="node">
<title>v12</title>
<ellipse fill="none" stroke="black" cx="264" cy="-372" rx="40.6" ry="18"/>
<text text-anchor="middle" x="264" y="-366.95" font-family="Times,serif" font-size="14.00">l&#45;s&#45;back</text>
</g>
<!-- v12&#45;&gt;v15 -->
<g id="edge8" class="edge">
<title>v12&#45;&gt;v15</title>
<path fill="none" stroke="black" d="M277.35,-389.48C285.76,-399.71 296.94,-413.05 307.25,-424.5 310.78,-428.42 314.59,-432.51 318.34,-436.45"/>
<polygon fill="black" stroke="black" points="315.81,-438.86 325.27,-443.64 320.85,-434.01 315.81,-438.86"/>
<text text-anchor="middle" x="313.62" y="-411.2" font-family="Times,serif" font-size="14.00">e7</text>
</g>
<!-- v12&#45;&gt;v20 -->
<g id="edge42" class="edge">
<title>v12&#45;&gt;v20</title>
<path fill="none" stroke="black" d="M234.69,-359.08C224.94,-353.57 215.14,-345.98 209.5,-336 205.64,-329.17 204.25,-320.99 204.09,-313.17"/>
<polygon fill="black" stroke="black" points="207.58,-313.48 204.55,-303.32 200.58,-313.14 207.58,-313.48"/>
<text text-anchor="middle" x="219.25" y="-322.7" font-family="Times,serif" font-size="14.00">e41</text>
</g>
<!-- v13 -->
<g id="node12" class="node">
<title>v13</title>
<ellipse fill="none" stroke="black" cx="224" cy="-18" rx="44.7" ry="18"/>
<text text-anchor="middle" x="224" y="-12.95" font-family="Times,serif" font-size="14.00">l&#45;m&#45;back</text>
</g>
<!-- v13&#45;&gt;v17 -->
<g id="edge24" class="edge">
<title>v13&#45;&gt;v17</title>
<path fill="none" stroke="black" d="M244.66,-34.35C250.99,-39.93 257.46,-46.68 262,-54 266.35,-61.02 269.49,-69.36 271.73,-77.26"/>
<polygon fill="black" stroke="black" points="268.3,-77.95 274.05,-86.84 275.1,-76.3 268.3,-77.95"/>
<text text-anchor="middle" x="279.15" y="-57.2" font-family="Times,serif" font-size="14.00">e23</text>
</g>
<!-- v13&#45;&gt;v20 -->
<g id="edge44" class="edge">
<title>v13&#45;&gt;v20</title>
<path fill="none" stroke="black" d="M222.95,-36.35C220.25,-80.81 213.06,-199.14 209.73,-253.93"/>
<polygon fill="black" stroke="black" points="206.25,-253.51 209.14,-263.7 213.24,-253.93 206.25,-253.51"/>
<text text-anchor="middle" x="226.12" y="-145.7" font-family="Times,serif" font-size="14.00">e43</text>
</g>
<!-- v14 -->
<g id="node13" class="node">
<title>v14</title>
<ellipse fill="none" stroke="black" cx="219" cy="-726" rx="39.58" ry="18"/>
<text text-anchor="middle" x="219" y="-720.95" font-family="Times,serif" font-size="14.00">t&#45;t&#45;back</text>
</g>
<!-- v14&#45;&gt;v2 -->
<g id="edge50" class="edge">
<title>v14&#45;&gt;v2</title>
<path fill="none" stroke="black" d="M216.79,-707.77C216.12,-697.51 216.44,-684.4 220.5,-673.5 221.91,-669.71 223.91,-666.03 226.2,-662.57"/>
<polygon fill="black" stroke="black" points="228.95,-664.73 232.27,-654.67 223.4,-660.46 228.95,-664.73"/>
<text text-anchor="middle" x="230.25" y="-676.7" font-family="Times,serif" font-size="14.00">e49</text>
</g>
<!-- v14&#45;&gt;v21 -->
<g id="edge20" class="edge">
<title>v14&#45;&gt;v21</title>
<path fill="none" stroke="black" d="M203.23,-742.91C197.73,-748.73 191.64,-755.5 186.5,-762 180.07,-770.13 173.59,-779.43 168.02,-787.87"/>
<polygon fill="black" stroke="black" points="165.26,-785.7 162.76,-795.99 171.13,-789.5 165.26,-785.7"/>
<text text-anchor="middle" x="196.25" y="-765.2" font-family="Times,serif" font-size="14.00">e19</text>
</g>
<!-- v14&#45;&gt;v22 -->
<g id="edge48" class="edge">
<title>v14&#45;&gt;v22</title>
<path fill="none" stroke="black" d="M237.13,-709.67C250.01,-699.05 267.89,-684.84 284.5,-673.5 293.51,-667.35 303.64,-661.14 312.95,-655.7"/>
<polygon fill="black" stroke="black" points="314.4,-658.91 321.33,-650.89 310.92,-652.84 314.4,-658.91"/>
<text text-anchor="middle" x="294.25" y="-676.7" font-family="Times,serif" font-size="14.00">e47</text>
</g>
<!-- v15&#45;&gt;v3 -->
<g id="edge1" class="edge">
<title>v15&#45;&gt;v3</title>
<path fill="none" stroke="black" d="M358.24,-445.28C365.86,-438.96 374.91,-431.4 383,-424.5 393.8,-415.29 405.61,-405.02 415.8,-396.1"/>
<polygon fill="black" stroke="black" points="417.93,-398.88 423.14,-389.66 413.31,-393.62 417.93,-398.88"/>
<text text-anchor="middle" x="407.32" y="-411.2" font-family="Times,serif" font-size="14.00">e0</text>
</g>
<!-- v15&#45;&gt;v9 -->
<g id="edge3" class="edge">
<title>v15&#45;&gt;v9</title>
<path fill="none" stroke="black" d="M337.26,-442.38C329.44,-402.01 315.39,-299.13 358,-231 361.05,-226.13 365.01,-221.62 369.3,-217.58"/>
<polygon fill="black" stroke="black" points="371.26,-220.51 376.64,-211.38 366.74,-215.16 371.26,-220.51"/>
<text text-anchor="middle" x="336.64" y="-322.7" font-family="Times,serif" font-size="14.00">e2</text>
</g>
<!-- v15&#45;&gt;v10 -->
<g id="edge5" class="edge">
<title>v15&#45;&gt;v10</title>
<path fill="none" stroke="black" d="M335.28,-478.55C331.31,-490.39 325.94,-506.43 321.35,-520.12"/>
<polygon fill="black" stroke="black" points="318.07,-518.88 318.21,-529.48 324.71,-521.11 318.07,-518.88"/>
<text text-anchor="middle" x="335.47" y="-499.7" font-family="Times,serif" font-size="14.00">e4</text>
</g>
<!-- v15&#45;&gt;v12 -->
<g id="edge7" class="edge">
<title>v15&#45;&gt;v12</title>
<path fill="none" stroke="black" d="M313.71,-452.56C298.8,-447.34 281.37,-438.59 271.25,-424.5 266.51,-417.9 264.21,-409.57 263.21,-401.55"/>
<polygon fill="black" stroke="black" points="266.72,-401.54 262.65,-391.76 259.73,-401.94 266.72,-401.54"/>
<text text-anchor="middle" x="277.62" y="-411.2" font-family="Times,serif" font-size="14.00">e6</text>
</g>
<!-- v16&#45;&gt;v3 -->
<g id="edge25" class="edge">
<title>v16&#45;&gt;v3</title>
<path fill="none" stroke="black" d="M441.98,-301.89C442.81,-307.5 443.59,-313.74 444,-319.5 444.53,-326.91 444.5,-334.93 444.23,-342.38"/>
<polygon fill="black" stroke="black" points="440.74,-342.13 443.69,-352.31 447.73,-342.51 440.74,-342.13"/>
<text text-anchor="middle" x="454.17" y="-322.7" font-family="Times,serif" font-size="14.00">e24</text>
</g>
<!-- v16&#45;&gt;v9 -->
<g id="edge27" class="edge">
<title>v16&#45;&gt;v9</title>
<path fill="none" stroke="black" d="M422.01,-268.44C416.11,-262.6 410.07,-255.35 406.5,-247.5 403.32,-240.52 401.65,-232.47 400.83,-224.84"/>
<polygon fill="black" stroke="black" points="404.33,-224.7 400.25,-214.93 397.34,-225.11 404.33,-224.7"/>
<text text-anchor="middle" x="416.25" y="-234.2" font-family="Times,serif" font-size="14.00">e26</text>
</g>
<!-- v17&#45;&gt;v6 -->
<g id="edge21" class="edge">
<title>v17&#45;&gt;v6</title>
<path fill="none" stroke="black" d="M279.32,-124.92C279.98,-130.52 280.62,-136.76 281,-142.5 281.49,-149.91 281.77,-157.92 281.92,-165.38"/>
<polygon fill="black" stroke="black" points="278.42,-165.35 282.05,-175.3 285.42,-165.26 278.42,-165.35"/>
<text text-anchor="middle" x="291.49" y="-145.7" font-family="Times,serif" font-size="14.00">e20</text>
</g>
<!-- v17&#45;&gt;v13 -->
<g id="edge23" class="edge">
<title>v17&#45;&gt;v13</title>
<path fill="none" stroke="black" d="M259.6,-90.74C253.55,-84.92 247.13,-77.87 242.5,-70.5 237.96,-63.29 234.33,-54.8 231.53,-46.83"/>
<polygon fill="black" stroke="black" points="234.94,-45.99 228.57,-37.51 228.27,-48.1 234.94,-45.99"/>
<text text-anchor="middle" x="252.25" y="-57.2" font-family="Times,serif" font-size="14.00">e22</text>
</g>
<!-- v18&#45;&gt;v4 -->
<g id="edge29" class="edge">
<title>v18&#45;&gt;v4</title>
<path fill="none" stroke="black" d="M148.58,-620.8C144.52,-615.1 140.59,-608.36 138.5,-601.5 135.99,-593.27 137.74,-584.51 141.07,-576.59"/>
<polygon fill="black" stroke="black" points="144.14,-578.28 145.64,-567.79 137.92,-575.05 144.14,-578.28"/>
<text text-anchor="middle" x="148.25" y="-588.2" font-family="Times,serif" font-size="14.00">e28</text>
</g>
<!-- v18&#45;&gt;v5 -->
<g id="edge31" class="edge">
<title>v18&#45;&gt;v5</title>
<path fill="none" stroke="black" d="M154.26,-655.39C149.5,-665.53 143.15,-678.64 137,-690 135.53,-692.71 133.96,-695.51 132.35,-698.29"/>
<polygon fill="black" stroke="black" points="129.41,-696.39 127.33,-706.78 135.43,-699.96 129.41,-696.39"/>
<text text-anchor="middle" x="154.71" y="-676.7" font-family="Times,serif" font-size="14.00">e30</text>
</g>
<!-- v18&#45;&gt;v10 -->
<g id="edge33" class="edge">
<title>v18&#45;&gt;v10</title>
<path fill="none" stroke="black" d="M189.09,-626.46C210.22,-618.45 237.65,-607.59 248,-601.5 255.66,-596.99 271.04,-584.66 284.81,-573.19"/>
<polygon fill="black" stroke="black" points="286.95,-575.96 292.36,-566.84 282.45,-570.6 286.95,-575.96"/>
<text text-anchor="middle" x="278.51" y="-588.2" font-family="Times,serif" font-size="14.00">e32</text>
</g>
<!-- v18&#45;&gt;v11 -->
<g id="edge35" class="edge">
<title>v18&#45;&gt;v11</title>
<path fill="none" stroke="black" d="M143.36,-622.28C128.44,-609.63 108.64,-589.66 100,-567 78.5,-510.61 99.79,-439.16 114.87,-400.64"/>
<polygon fill="black" stroke="black" points="118,-402.22 118.54,-391.64 111.52,-399.58 118,-402.22"/>
<text text-anchor="middle" x="101.19" y="-499.7" font-family="Times,serif" font-size="14.00">e34</text>
</g>
<!-- v19&#45;&gt;v4 -->
<g id="edge9" class="edge">
<title>v19&#45;&gt;v4</title>
<path fill="none" stroke="black" d="M159,-478.85C159,-490.56 159,-506.29 159,-519.78"/>
<polygon fill="black" stroke="black" points="155.5,-519.4 159,-529.4 162.5,-519.4 155.5,-519.4"/>
<text text-anchor="middle" x="165.38" y="-499.7" font-family="Times,serif" font-size="14.00">e8</text>
</g>
<!-- v19&#45;&gt;v11 -->
<g id="edge11" class="edge">
<title>v19&#45;&gt;v11</title>
<path fill="none" stroke="black" d="M141.47,-444.84C135.92,-439.13 130.47,-432.12 127.5,-424.5 124.73,-417.39 123.75,-409.3 123.68,-401.67"/>
<polygon fill="black" stroke="black" points="127.17,-401.93 124.11,-391.79 120.18,-401.62 127.17,-401.93"/>
<text text-anchor="middle" x="137.25" y="-411.2" font-family="Times,serif" font-size="14.00">e10</text>
</g>
<!-- v20&#45;&gt;v6 -->
<g id="edge37" class="edge">
<title>v20&#45;&gt;v6</title>
<path fill="none" stroke="black" d="M217.29,-266.43C223.74,-255.87 232.87,-242.02 242.5,-231 246.08,-226.9 250.12,-222.82 254.22,-218.97"/>
<polygon fill="black" stroke="black" points="256.36,-221.76 261.46,-212.47 251.68,-216.55 256.36,-221.76"/>
<text text-anchor="middle" x="252.25" y="-234.2" font-family="Times,serif" font-size="14.00">e36</text>
</g>
<!-- v20&#45;&gt;v7 -->
<g id="edge39" class="edge">
<title>v20&#45;&gt;v7</title>
<path fill="none" stroke="black" d="M179,-280.92C152.13,-278.02 112.52,-269.93 86.5,-247.5 79.28,-241.27 74.15,-232.37 70.58,-223.71"/>
<polygon fill="black" stroke="black" points="73.96,-222.79 67.33,-214.52 67.36,-225.12 73.96,-222.79"/>
<text text-anchor="middle" x="96.25" y="-234.2" font-family="Times,serif" font-size="14.00">e38</text>
</g>
<!-- v20&#45;&gt;v12 -->
<g id="edge41" class="edge">
<title>v20&#45;&gt;v12</title>
<path fill="none" stroke="black" d="M219.72,-300.35C224,-306.28 228.82,-313.13 233,-319.5 238.24,-327.47 243.69,-336.32 248.53,-344.4"/>
<polygon fill="black" stroke="black" points="245.39,-345.97 253.5,-352.79 251.42,-342.41 245.39,-345.97"/>
<text text-anchor="middle" x="252.48" y="-322.7" font-family="Times,serif" font-size="14.00">e40</text>
</g>
<!-- v20&#45;&gt;v13 -->
<g id="edge43" class="edge">
<title>v20&#45;&gt;v13</title>
<path fill="none" stroke="black" d="M198.34,-266.45C184,-240.77 159.5,-188.62 166.5,-142.5 172.68,-101.78 174.07,-90.05 194,-54 195.92,-50.53 198.21,-47.1 200.67,-43.81"/>
<polygon fill="black" stroke="black" points="203.26,-46.17 206.89,-36.22 197.85,-41.74 203.26,-46.17"/>
<text text-anchor="middle" x="176.25" y="-145.7" font-family="Times,serif" font-size="14.00">e42</text>
</g>
<!-- v21&#45;&gt;v5 -->
<g id="edge13" class="edge">
<title>v21&#45;&gt;v5</title>
<path fill="none" stroke="black" d="M145.06,-796.82C140.09,-784.89 133.29,-768.55 127.52,-754.68"/>
<polygon fill="black" stroke="black" points="130.82,-753.5 123.75,-745.62 124.36,-756.19 130.82,-753.5"/>
<text text-anchor="middle" x="146.97" y="-765.2" font-family="Times,serif" font-size="14.00">e12</text>
</g>
<!-- v21&#45;&gt;v7 -->
<g id="edge15" class="edge">
<title>v21&#45;&gt;v7</title>
<path fill="none" stroke="black" d="M123.07,-811.5C96.18,-808.3 56.29,-800.01 29,-778.5 8.37,-762.24 0,-753.27 0,-727 0,-727 0,-727 0,-282.5 0,-257.19 17.85,-234.32 34.54,-218.46"/>
<polygon fill="black" stroke="black" points="36.82,-221.12 41.94,-211.84 32.15,-215.9 36.82,-221.12"/>
<text text-anchor="middle" x="9.75" y="-499.7" font-family="Times,serif" font-size="14.00">e14</text>
</g>
<!-- v21&#45;&gt;v8 -->
<g id="edge17" class="edge">
<title>v21&#45;&gt;v8</title>
<path fill="none" stroke="black" d="M171.69,-828.12C193.63,-842.17 229.42,-865.11 255.32,-881.7"/>
<polygon fill="black" stroke="black" points="253.12,-884.45 263.43,-886.9 256.9,-878.56 253.12,-884.45"/>
<text text-anchor="middle" x="241.34" y="-853.7" font-family="Times,serif" font-size="14.00">e16</text>
</g>
<!-- v21&#45;&gt;v14 -->
<g id="edge19" class="edge">
<title>v21&#45;&gt;v14</title>
<path fill="none" stroke="black" d="M176.37,-804.5C188.34,-798.84 201.89,-790.34 210,-778.5 214.62,-771.76 217.1,-763.39 218.38,-755.37"/>
<polygon fill="black" stroke="black" points="221.84,-755.91 219.35,-745.61 214.88,-755.21 221.84,-755.91"/>
<text text-anchor="middle" x="226.52" y="-765.2" font-family="Times,serif" font-size="14.00">e18</text>
</g>
<!-- v22&#45;&gt;v8 -->
<g id="edge45" class="edge">
<title>v22&#45;&gt;v8</title>
<path fill="none" stroke="black" d="M362.04,-651.95C368.53,-657.81 375.18,-665.23 379,-673.5 415.02,-751.59 430.57,-798.18 379,-867 368.68,-880.78 352.23,-889.13 336.08,-894.2"/>
<polygon fill="black" stroke="black" points="335.21,-890.81 326.48,-896.81 337.05,-897.56 335.21,-890.81"/>
<text text-anchor="middle" x="421.8" y="-765.2" font-family="Times,serif" font-size="14.00">e44</text>
</g>
<!-- v22&#45;&gt;v14 -->
<g id="edge47" class="edge">
<title>v22&#45;&gt;v14</title>
<path fill="none" stroke="black" d="M335.91,-654.81C329.63,-666.03 319.99,-680.54 308,-690 295.1,-700.18 278.87,-707.71 263.81,-713.13"/>
<polygon fill="black" stroke="black" points="262.93,-709.74 254.56,-716.23 265.15,-716.38 262.93,-709.74"/>
<text text-anchor="middle" x="333.15" y="-676.7" font-family="Times,serif" font-size="14.00">e46</text>
</g>
</g>
</svg>
