<?xml version="1.0" encoding="UTF-8" standalone="no"?>
<!DOCTYPE svg PUBLIC "-//W3C//DTD SVG 1.1//EN"
 "http://www.w3.org/Graphics/SVG/1.1/DTD/svg11.dtd">
<!-- Generated by graphviz version 12.1.2 (20240928.0832)
 -->
<!-- Title: GraphOfConvexSets Pages: 1 -->
<svg width="466pt" height="929pt"
 viewBox="0.00 0.00 466.14 929.00" xmlns="http://www.w3.org/2000/svg" xmlns:xlink="http://www.w3.org/1999/xlink">
<g id="graph0" class="graph" transform="scale(1 1) rotate(0) translate(4 925)">
<title>GraphOfConvexSets</title>
<polygon fill="white" stroke="none" points="-4,4 -4,-925 462.14,-925 462.14,4 -4,4"/>
<!-- v1718 -->
<g id="node1" class="node">
<title>v1718</title>
<ellipse fill="none" stroke="black" cx="265" cy="-637.5" rx="31.9" ry="18"/>
<text text-anchor="middle" x="265" y="-632.45" font-family="Times,serif" font-size="14.00">target</text>
</g>
<!-- v1719 -->
<g id="node2" class="node">
<title>v1719</title>
<ellipse fill="none" stroke="black" cx="416" cy="-372" rx="42.14" ry="18"/>
<text text-anchor="middle" x="416" y="-366.95" font-family="Times,serif" font-size="14.00">s&#45;s&#45;front</text>
</g>
<!-- v1729 -->
<g id="node12" class="node">
<title>v1729</title>
<ellipse fill="none" stroke="black" cx="293" cy="-460.5" rx="29.86" ry="18"/>
<text text-anchor="middle" x="293" y="-455.45" font-family="Times,serif" font-size="14.00">*&#45;s&#45;*</text>
</g>
<!-- v1719&#45;&gt;v1729 -->
<g id="edge2" class="edge">
<title>v1719&#45;&gt;v1729</title>
<path fill="none" stroke="black" d="M412.04,-390.4C408.68,-401.51 402.8,-415.48 393,-424.5 376.52,-439.67 353.09,-448.32 333.05,-453.23"/>
<polygon fill="black" stroke="black" points="332.52,-449.76 323.51,-455.33 334.02,-456.6 332.52,-449.76"/>
<text text-anchor="middle" x="411.11" y="-411.2" font-family="Times,serif" font-size="14.00">e1</text>
</g>
<!-- v1730 -->
<g id="node13" class="node">
<title>v1730</title>
<ellipse fill="none" stroke="black" cx="413" cy="-283.5" rx="29.86" ry="18"/>
<text text-anchor="middle" x="413" y="-278.45" font-family="Times,serif" font-size="14.00">s&#45;*&#45;*</text>
</g>
<!-- v1719&#45;&gt;v1730 -->
<g id="edge22" class="edge">
<title>v1719&#45;&gt;v1730</title>
<path fill="none" stroke="black" d="M403.26,-354.44C399.71,-348.88 396.32,-342.45 394.5,-336 392.16,-327.7 393.8,-318.82 396.9,-310.8"/>
<polygon fill="black" stroke="black" points="399.99,-312.45 401.13,-301.92 393.67,-309.44 399.99,-312.45"/>
<text text-anchor="middle" x="404.25" y="-322.7" font-family="Times,serif" font-size="14.00">e21</text>
</g>
<!-- v1720 -->
<g id="node3" class="node">
<title>v1720</title>
<ellipse fill="none" stroke="black" cx="120" cy="-726" rx="45.21" ry="18"/>
<text text-anchor="middle" x="120" y="-720.95" font-family="Times,serif" font-size="14.00">m&#45;t&#45;front</text>
</g>
<!-- v1732 -->
<g id="node15" class="node">
<title>v1732</title>
<ellipse fill="none" stroke="black" cx="168" cy="-637.5" rx="33.95" ry="18"/>
<text text-anchor="middle" x="168" y="-632.45" font-family="Times,serif" font-size="14.00">m&#45;*&#45;*</text>
</g>
<!-- v1720&#45;&gt;v1732 -->
<g id="edge26" class="edge">
<title>v1720&#45;&gt;v1732</title>
<path fill="none" stroke="black" d="M116.9,-707.84C115.85,-697.35 116.08,-683.99 121.5,-673.5 124.65,-667.41 129.4,-662.08 134.68,-657.55"/>
<polygon fill="black" stroke="black" points="136.76,-660.37 142.67,-651.58 132.57,-654.76 136.76,-660.37"/>
<text text-anchor="middle" x="131.25" y="-676.7" font-family="Times,serif" font-size="14.00">e25</text>
</g>
<!-- v1734 -->
<g id="node17" class="node">
<title>v1734</title>
<ellipse fill="none" stroke="black" cx="157" cy="-814.5" rx="28.83" ry="18"/>
<text text-anchor="middle" x="157" y="-809.45" font-family="Times,serif" font-size="14.00">*&#45;t&#45;*</text>
</g>
<!-- v1720&#45;&gt;v1734 -->
<g id="edge10" class="edge">
<title>v1720&#45;&gt;v1734</title>
<path fill="none" stroke="black" d="M115.79,-743.95C114.07,-754.35 113.46,-767.71 118.25,-778.5 120.78,-784.2 124.75,-789.36 129.19,-793.86"/>
<polygon fill="black" stroke="black" points="126.57,-796.21 136.38,-800.22 131.21,-790.97 126.57,-796.21"/>
<text text-anchor="middle" x="124.62" y="-765.2" font-family="Times,serif" font-size="14.00">e9</text>
</g>
<!-- v1721 -->
<g id="node4" class="node">
<title>v1721</title>
<ellipse fill="none" stroke="black" cx="165" cy="-195" rx="45.21" ry="18"/>
<text text-anchor="middle" x="165" y="-189.95" font-family="Times,serif" font-size="14.00">l&#45;m&#45;front</text>
</g>
<!-- v1731 -->
<g id="node14" class="node">
<title>v1731</title>
<ellipse fill="none" stroke="black" cx="170" cy="-106.5" rx="33.95" ry="18"/>
<text text-anchor="middle" x="170" y="-101.45" font-family="Times,serif" font-size="14.00">*&#45;m&#45;*</text>
</g>
<!-- v1721&#45;&gt;v1731 -->
<g id="edge18" class="edge">
<title>v1721&#45;&gt;v1731</title>
<path fill="none" stroke="black" d="M151.59,-177.53C145.1,-167.53 139.49,-154.44 143.5,-142.5 144.69,-138.96 146.39,-135.49 148.37,-132.2"/>
<polygon fill="black" stroke="black" points="151.12,-134.38 154.02,-124.19 145.4,-130.34 151.12,-134.38"/>
<text text-anchor="middle" x="153.25" y="-145.7" font-family="Times,serif" font-size="14.00">e17</text>
</g>
<!-- v1733 -->
<g id="node16" class="node">
<title>v1733</title>
<ellipse fill="none" stroke="black" cx="203" cy="-283.5" rx="28.83" ry="18"/>
<text text-anchor="middle" x="203" y="-278.45" font-family="Times,serif" font-size="14.00">l&#45;*&#45;*</text>
</g>
<!-- v1721&#45;&gt;v1733 -->
<g id="edge30" class="edge">
<title>v1721&#45;&gt;v1733</title>
<path fill="none" stroke="black" d="M174.15,-212.92C177.11,-218.6 180.31,-225.02 183,-231 186.48,-238.73 189.94,-247.26 192.98,-255.11"/>
<polygon fill="black" stroke="black" points="189.6,-256.09 196.42,-264.2 196.15,-253.61 189.6,-256.09"/>
<text text-anchor="middle" x="199.27" y="-234.2" font-family="Times,serif" font-size="14.00">e29</text>
</g>
<!-- v1722 -->
<g id="node5" class="node">
<title>v1722</title>
<ellipse fill="none" stroke="black" cx="52" cy="-195" rx="40.09" ry="18"/>
<text text-anchor="middle" x="52" y="-189.95" font-family="Times,serif" font-size="14.00">l&#45;t&#45;front</text>
</g>
<!-- v1722&#45;&gt;v1733 -->
<g id="edge32" class="edge">
<title>v1722&#45;&gt;v1733</title>
<path fill="none" stroke="black" d="M74.37,-210.16C91.27,-220.73 115.13,-235.38 136.5,-247.5 147.59,-253.79 159.91,-260.38 170.9,-266.13"/>
<polygon fill="black" stroke="black" points="169.12,-269.14 179.6,-270.64 172.34,-262.93 169.12,-269.14"/>
<text text-anchor="middle" x="146.25" y="-234.2" font-family="Times,serif" font-size="14.00">e31</text>
</g>
<!-- v1722&#45;&gt;v1734 -->
<g id="edge12" class="edge">
<title>v1722&#45;&gt;v1734</title>
<path fill="none" stroke="black" d="M49.15,-213.18C46.52,-230.59 43,-258.34 43,-282.5 43,-727 43,-727 43,-727 43,-766.4 86.74,-790.18 120.03,-802.57"/>
<polygon fill="black" stroke="black" points="118.82,-805.85 129.42,-805.84 121.13,-799.24 118.82,-805.85"/>
<text text-anchor="middle" x="52.75" y="-499.7" font-family="Times,serif" font-size="14.00">e11</text>
</g>
<!-- v1723 -->
<g id="node6" class="node">
<title>v1723</title>
<ellipse fill="none" stroke="black" cx="291" cy="-903" rx="40.09" ry="18"/>
<text text-anchor="middle" x="291" y="-897.95" font-family="Times,serif" font-size="14.00">t&#45;t&#45;front</text>
</g>
<!-- v1723&#45;&gt;v1718 -->
<g id="edge41" class="edge">
<title>v1723&#45;&gt;v1718</title>
<path fill="none" stroke="black" d="M291.51,-884.6C292.31,-846.12 292.38,-751.08 277,-673.5 276.53,-671.14 275.94,-668.72 275.28,-666.3"/>
<polygon fill="black" stroke="black" points="278.62,-665.25 272.26,-656.78 271.95,-667.37 278.62,-665.25"/>
<text text-anchor="middle" x="299.13" y="-765.2" font-family="Times,serif" font-size="14.00">e40</text>
</g>
<!-- v1723&#45;&gt;v1734 -->
<g id="edge14" class="edge">
<title>v1723&#45;&gt;v1734</title>
<path fill="none" stroke="black" d="M253.84,-895.79C232.91,-890.8 207.28,-882.05 188.5,-867 180.39,-860.5 173.83,-851.31 168.85,-842.48"/>
<polygon fill="black" stroke="black" points="172.08,-841.12 164.4,-833.82 165.85,-844.32 172.08,-841.12"/>
<text text-anchor="middle" x="198.25" y="-853.7" font-family="Times,serif" font-size="14.00">e13</text>
</g>
<!-- v1735 -->
<g id="node18" class="node">
<title>v1735</title>
<ellipse fill="none" stroke="black" cx="350" cy="-637.5" rx="28.83" ry="18"/>
<text text-anchor="middle" x="350" y="-632.45" font-family="Times,serif" font-size="14.00">t&#45;*&#45;*</text>
</g>
<!-- v1723&#45;&gt;v1735 -->
<g id="edge38" class="edge">
<title>v1723&#45;&gt;v1735</title>
<path fill="none" stroke="black" d="M299.07,-885.18C301.56,-879.51 304.14,-873.07 306,-867 327.6,-796.57 340.75,-710.53 346.53,-666.86"/>
<polygon fill="black" stroke="black" points="349.97,-667.58 347.78,-657.22 343.03,-666.69 349.97,-667.58"/>
<text text-anchor="middle" x="340.93" y="-765.2" font-family="Times,serif" font-size="14.00">e37</text>
</g>
<!-- v1724 -->
<g id="node7" class="node">
<title>v1724</title>
<ellipse fill="none" stroke="black" cx="366" cy="-195" rx="41.63" ry="18"/>
<text text-anchor="middle" x="366" y="-189.95" font-family="Times,serif" font-size="14.00">s&#45;s&#45;back</text>
</g>
<!-- v1724&#45;&gt;v1729 -->
<g id="edge4" class="edge">
<title>v1724&#45;&gt;v1729</title>
<path fill="none" stroke="black" d="M362.06,-213.37C353.21,-251.77 330.6,-346.68 306,-424.5 305.24,-426.91 304.41,-429.4 303.54,-431.89"/>
<polygon fill="black" stroke="black" points="300.32,-430.51 300.2,-441.1 306.9,-432.89 300.32,-430.51"/>
<text text-anchor="middle" x="341.79" y="-322.7" font-family="Times,serif" font-size="14.00">e3</text>
</g>
<!-- v1724&#45;&gt;v1730 -->
<g id="edge24" class="edge">
<title>v1724&#45;&gt;v1730</title>
<path fill="none" stroke="black" d="M384.24,-211.26C390.02,-216.92 395.95,-223.75 400,-231 403.99,-238.14 406.77,-246.52 408.71,-254.41"/>
<polygon fill="black" stroke="black" points="405.23,-254.87 410.67,-263.96 412.08,-253.45 405.23,-254.87"/>
<text text-anchor="middle" x="416.42" y="-234.2" font-family="Times,serif" font-size="14.00">e23</text>
</g>
<!-- v1725 -->
<g id="node8" class="node">
<title>v1725</title>
<ellipse fill="none" stroke="black" cx="230" cy="-549" rx="45.72" ry="18"/>
<text text-anchor="middle" x="230" y="-543.95" font-family="Times,serif" font-size="14.00">m&#45;s&#45;back</text>
</g>
<!-- v1725&#45;&gt;v1729 -->
<g id="edge6" class="edge">
<title>v1725&#45;&gt;v1729</title>
<path fill="none" stroke="black" d="M229.72,-530.97C230.3,-520.28 232.52,-506.64 239.25,-496.5 244.31,-488.87 251.67,-482.52 259.33,-477.43"/>
<polygon fill="black" stroke="black" points="260.94,-480.55 267.74,-472.42 257.36,-474.53 260.94,-480.55"/>
<text text-anchor="middle" x="245.62" y="-499.7" font-family="Times,serif" font-size="14.00">e5</text>
</g>
<!-- v1725&#45;&gt;v1732 -->
<g id="edge28" class="edge">
<title>v1725&#45;&gt;v1732</title>
<path fill="none" stroke="black" d="M219.35,-566.96C212.84,-577.13 204.2,-590.24 196,-601.5 193.52,-604.91 190.83,-608.44 188.14,-611.9"/>
<polygon fill="black" stroke="black" points="185.56,-609.52 182.08,-619.52 191.04,-613.87 185.56,-609.52"/>
<text text-anchor="middle" x="216.44" y="-588.2" font-family="Times,serif" font-size="14.00">e27</text>
</g>
<!-- v1726 -->
<g id="node9" class="node">
<title>v1726</title>
<ellipse fill="none" stroke="black" cx="239" cy="-372" rx="40.6" ry="18"/>
<text text-anchor="middle" x="239" y="-366.95" font-family="Times,serif" font-size="14.00">l&#45;s&#45;back</text>
</g>
<!-- v1726&#45;&gt;v1729 -->
<g id="edge8" class="edge">
<title>v1726&#45;&gt;v1729</title>
<path fill="none" stroke="black" d="M249.48,-389.79C257.23,-402.21 267.94,-419.36 276.79,-433.54"/>
<polygon fill="black" stroke="black" points="273.78,-435.32 282.04,-441.95 279.71,-431.61 273.78,-435.32"/>
<text text-anchor="middle" x="277.21" y="-411.2" font-family="Times,serif" font-size="14.00">e7</text>
</g>
<!-- v1726&#45;&gt;v1733 -->
<g id="edge34" class="edge">
<title>v1726&#45;&gt;v1733</title>
<path fill="none" stroke="black" d="M214.98,-357.14C207.66,-351.59 200.5,-344.47 196.5,-336 193.09,-328.77 192.82,-320.37 193.93,-312.48"/>
<polygon fill="black" stroke="black" points="197.3,-313.47 196.01,-302.95 190.46,-311.97 197.3,-313.47"/>
<text text-anchor="middle" x="206.25" y="-322.7" font-family="Times,serif" font-size="14.00">e33</text>
</g>
<!-- v1727 -->
<g id="node10" class="node">
<title>v1727</title>
<ellipse fill="none" stroke="black" cx="222" cy="-18" rx="44.7" ry="18"/>
<text text-anchor="middle" x="222" y="-12.95" font-family="Times,serif" font-size="14.00">l&#45;m&#45;back</text>
</g>
<!-- v1727&#45;&gt;v1731 -->
<g id="edge20" class="edge">
<title>v1727&#45;&gt;v1731</title>
<path fill="none" stroke="black" d="M211.83,-35.92C204.43,-48.23 194.27,-65.13 185.82,-79.19"/>
<polygon fill="black" stroke="black" points="182.96,-77.15 180.81,-87.52 188.96,-80.76 182.96,-77.15"/>
<text text-anchor="middle" x="210.41" y="-57.2" font-family="Times,serif" font-size="14.00">e19</text>
</g>
<!-- v1727&#45;&gt;v1733 -->
<g id="edge36" class="edge">
<title>v1727&#45;&gt;v1733</title>
<path fill="none" stroke="black" d="M231.14,-36.03C233.76,-41.61 236.35,-47.94 238,-54 243.87,-75.61 250.45,-124.71 247,-159 242.98,-198.94 245.36,-210.85 229,-247.5 227.38,-251.14 225.32,-254.75 223.09,-258.21"/>
<polygon fill="black" stroke="black" points="220.36,-256 217.37,-266.17 226.05,-260.08 220.36,-256"/>
<text text-anchor="middle" x="257.65" y="-145.7" font-family="Times,serif" font-size="14.00">e35</text>
</g>
<!-- v1728 -->
<g id="node11" class="node">
<title>v1728</title>
<ellipse fill="none" stroke="black" cx="223" cy="-726" rx="39.58" ry="18"/>
<text text-anchor="middle" x="223" y="-720.95" font-family="Times,serif" font-size="14.00">t&#45;t&#45;back</text>
</g>
<!-- v1728&#45;&gt;v1718 -->
<g id="edge42" class="edge">
<title>v1728&#45;&gt;v1718</title>
<path fill="none" stroke="black" d="M215.04,-707.92C211.38,-697.46 208.95,-684.1 214.5,-673.5 218.31,-666.22 224.4,-660.16 231.05,-655.23"/>
<polygon fill="black" stroke="black" points="232.55,-658.43 239.03,-650.04 228.74,-652.56 232.55,-658.43"/>
<text text-anchor="middle" x="224.25" y="-676.7" font-family="Times,serif" font-size="14.00">e41</text>
</g>
<!-- v1728&#45;&gt;v1734 -->
<g id="edge16" class="edge">
<title>v1728&#45;&gt;v1734</title>
<path fill="none" stroke="black" d="M203.54,-741.75C196.67,-747.56 189.23,-754.62 183.5,-762 177.75,-769.4 172.68,-778.23 168.55,-786.48"/>
<polygon fill="black" stroke="black" points="165.42,-784.9 164.33,-795.44 171.76,-787.88 165.42,-784.9"/>
<text text-anchor="middle" x="193.25" y="-765.2" font-family="Times,serif" font-size="14.00">e15</text>
</g>
<!-- v1728&#45;&gt;v1735 -->
<g id="edge40" class="edge">
<title>v1728&#45;&gt;v1735</title>
<path fill="none" stroke="black" d="M230.45,-708.1C236.14,-696.91 244.98,-682.66 256.5,-673.5 274.83,-658.94 284.08,-663.72 306,-655.5 309.02,-654.37 312.15,-653.18 315.29,-651.99"/>
<polygon fill="black" stroke="black" points="316.33,-655.33 324.41,-648.48 313.82,-648.8 316.33,-655.33"/>
<text text-anchor="middle" x="266.25" y="-676.7" font-family="Times,serif" font-size="14.00">e39</text>
</g>
<!-- v1729&#45;&gt;v1719 -->
<g id="edge1" class="edge">
<title>v1729&#45;&gt;v1719</title>
<path fill="none" stroke="black" d="M315.93,-448.5C328.45,-442.11 344.02,-433.56 357,-424.5 368.9,-416.2 381.14,-405.87 391.36,-396.64"/>
<polygon fill="black" stroke="black" points="393.66,-399.27 398.65,-389.92 388.92,-394.13 393.66,-399.27"/>
<text text-anchor="middle" x="383.81" y="-411.2" font-family="Times,serif" font-size="14.00">e0</text>
</g>
<!-- v1729&#45;&gt;v1724 -->
<g id="edge3" class="edge">
<title>v1729&#45;&gt;v1724</title>
<path fill="none" stroke="black" d="M292.25,-442.22C291.28,-402.36 293.18,-301.96 332,-231 334.13,-227.1 336.82,-223.32 339.75,-219.79"/>
<polygon fill="black" stroke="black" points="342.1,-222.4 346.31,-212.68 336.96,-217.66 342.1,-222.4"/>
<text text-anchor="middle" x="308.14" y="-322.7" font-family="Times,serif" font-size="14.00">e2</text>
</g>
<!-- v1729&#45;&gt;v1725 -->
<g id="edge5" class="edge">
<title>v1729&#45;&gt;v1725</title>
<path fill="none" stroke="black" d="M281.32,-477.54C272.17,-490.1 259.28,-507.8 248.7,-522.33"/>
<polygon fill="black" stroke="black" points="246.1,-519.95 243.04,-530.1 251.75,-524.08 246.1,-519.95"/>
<text text-anchor="middle" x="273.52" y="-499.7" font-family="Times,serif" font-size="14.00">e4</text>
</g>
<!-- v1729&#45;&gt;v1726 -->
<g id="edge7" class="edge">
<title>v1729&#45;&gt;v1726</title>
<path fill="none" stroke="black" d="M270.14,-448.63C260.52,-442.84 250.2,-434.78 244.25,-424.5 240.3,-417.68 238.44,-409.5 237.7,-401.68"/>
<polygon fill="black" stroke="black" points="241.21,-401.71 237.37,-391.83 234.21,-401.94 241.21,-401.71"/>
<text text-anchor="middle" x="250.62" y="-411.2" font-family="Times,serif" font-size="14.00">e6</text>
</g>
<!-- v1730&#45;&gt;v1719 -->
<g id="edge21" class="edge">
<title>v1730&#45;&gt;v1719</title>
<path fill="none" stroke="black" d="M415.98,-301.89C416.81,-307.5 417.59,-313.74 418,-319.5 418.53,-326.91 418.5,-334.93 418.23,-342.38"/>
<polygon fill="black" stroke="black" points="414.74,-342.13 417.69,-352.31 421.73,-342.51 414.74,-342.13"/>
<text text-anchor="middle" x="428.17" y="-322.7" font-family="Times,serif" font-size="14.00">e20</text>
</g>
<!-- v1730&#45;&gt;v1724 -->
<g id="edge23" class="edge">
<title>v1730&#45;&gt;v1724</title>
<path fill="none" stroke="black" d="M396.7,-268.09C390.88,-262.21 384.72,-255.02 380.5,-247.5 376.47,-240.32 373.49,-231.93 371.32,-224.03"/>
<polygon fill="black" stroke="black" points="374.77,-223.4 369.04,-214.49 367.96,-225.03 374.77,-223.4"/>
<text text-anchor="middle" x="390.25" y="-234.2" font-family="Times,serif" font-size="14.00">e22</text>
</g>
<!-- v1731&#45;&gt;v1721 -->
<g id="edge17" class="edge">
<title>v1731&#45;&gt;v1721</title>
<path fill="none" stroke="black" d="M169,-124.85C168.32,-136.56 167.41,-152.29 166.63,-165.78"/>
<polygon fill="black" stroke="black" points="163.16,-165.21 166.08,-175.4 170.15,-165.62 163.16,-165.21"/>
<text text-anchor="middle" x="177.7" y="-145.7" font-family="Times,serif" font-size="14.00">e16</text>
</g>
<!-- v1731&#45;&gt;v1727 -->
<g id="edge19" class="edge">
<title>v1731&#45;&gt;v1727</title>
<path fill="none" stroke="black" d="M162.92,-88.72C159.6,-78.12 157.54,-64.5 163.5,-54 167.47,-46.99 173.47,-41.24 180.13,-36.56"/>
<polygon fill="black" stroke="black" points="181.5,-39.83 188.21,-31.63 177.85,-33.86 181.5,-39.83"/>
<text text-anchor="middle" x="173.25" y="-57.2" font-family="Times,serif" font-size="14.00">e18</text>
</g>
<!-- v1732&#45;&gt;v1720 -->
<g id="edge25" class="edge">
<title>v1732&#45;&gt;v1720</title>
<path fill="none" stroke="black" d="M161.37,-655.62C157.16,-665.85 151.33,-678.95 145,-690 143.27,-693.01 141.35,-696.09 139.36,-699.1"/>
<polygon fill="black" stroke="black" points="136.61,-696.91 133.78,-707.12 142.36,-700.91 136.61,-696.91"/>
<text text-anchor="middle" x="162.6" y="-676.7" font-family="Times,serif" font-size="14.00">e24</text>
</g>
<!-- v1732&#45;&gt;v1725 -->
<g id="edge27" class="edge">
<title>v1732&#45;&gt;v1725</title>
<path fill="none" stroke="black" d="M167.45,-619.01C167.91,-608.4 169.97,-595.02 176.5,-585 180.4,-579.02 185.71,-573.83 191.49,-569.42"/>
<polygon fill="black" stroke="black" points="193.23,-572.47 199.55,-563.97 189.31,-566.67 193.23,-572.47"/>
<text text-anchor="middle" x="186.25" y="-588.2" font-family="Times,serif" font-size="14.00">e26</text>
</g>
<!-- v1733&#45;&gt;v1721 -->
<g id="edge29" class="edge">
<title>v1733&#45;&gt;v1721</title>
<path fill="none" stroke="black" d="M183.15,-270.3C175.51,-264.45 167.64,-256.69 163.5,-247.5 160.28,-240.35 159.44,-232.06 159.73,-224.25"/>
<polygon fill="black" stroke="black" points="163.2,-224.77 160.72,-214.47 156.23,-224.07 163.2,-224.77"/>
<text text-anchor="middle" x="173.25" y="-234.2" font-family="Times,serif" font-size="14.00">e28</text>
</g>
<!-- v1733&#45;&gt;v1722 -->
<g id="edge31" class="edge">
<title>v1733&#45;&gt;v1722</title>
<path fill="none" stroke="black" d="M174.01,-281.06C146.38,-278.28 105.03,-270.29 77.5,-247.5 70.04,-241.33 64.58,-232.43 60.66,-223.77"/>
<polygon fill="black" stroke="black" points="63.96,-222.59 57.05,-214.55 57.44,-225.14 63.96,-222.59"/>
<text text-anchor="middle" x="87.25" y="-234.2" font-family="Times,serif" font-size="14.00">e30</text>
</g>
<!-- v1733&#45;&gt;v1726 -->
<g id="edge33" class="edge">
<title>v1733&#45;&gt;v1726</title>
<path fill="none" stroke="black" d="M211.47,-301.08C214.31,-306.85 217.4,-313.41 220,-319.5 223.26,-327.16 226.51,-335.59 229.37,-343.37"/>
<polygon fill="black" stroke="black" points="226.06,-344.49 232.74,-352.71 232.65,-342.12 226.06,-344.49"/>
<text text-anchor="middle" x="235.94" y="-322.7" font-family="Times,serif" font-size="14.00">e32</text>
</g>
<!-- v1733&#45;&gt;v1727 -->
<g id="edge35" class="edge">
<title>v1733&#45;&gt;v1727</title>
<path fill="none" stroke="black" d="M208.25,-265.5C209.9,-259.81 211.65,-253.41 213,-247.5 216.48,-232.33 217.39,-228.48 219,-213 225.56,-149.97 222.89,-133.86 224,-70.5 224.13,-63.17 224.21,-61.33 224,-54 223.94,-51.94 223.86,-49.82 223.77,-47.69"/>
<polygon fill="black" stroke="black" points="227.28,-47.76 223.27,-37.95 220.29,-48.12 227.28,-47.76"/>
<text text-anchor="middle" x="233.28" y="-145.7" font-family="Times,serif" font-size="14.00">e34</text>
</g>
<!-- v1734&#45;&gt;v1720 -->
<g id="edge9" class="edge">
<title>v1734&#45;&gt;v1720</title>
<path fill="none" stroke="black" d="M149.87,-796.82C144.76,-784.89 137.77,-768.55 131.84,-754.68"/>
<polygon fill="black" stroke="black" points="135.11,-753.43 127.96,-745.61 128.68,-756.18 135.11,-753.43"/>
<text text-anchor="middle" x="148.19" y="-765.2" font-family="Times,serif" font-size="14.00">e8</text>
</g>
<!-- v1734&#45;&gt;v1722 -->
<g id="edge11" class="edge">
<title>v1734&#45;&gt;v1722</title>
<path fill="none" stroke="black" d="M127.97,-811.91C100,-809.02 57.79,-800.96 29,-778.5 8.29,-762.34 0,-753.27 0,-727 0,-727 0,-727 0,-282.5 0,-258.99 14.28,-236.37 27.87,-220.16"/>
<polygon fill="black" stroke="black" points="30.23,-222.78 34.26,-212.98 25,-218.13 30.23,-222.78"/>
<text text-anchor="middle" x="9.75" y="-499.7" font-family="Times,serif" font-size="14.00">e10</text>
</g>
<!-- v1734&#45;&gt;v1723 -->
<g id="edge13" class="edge">
<title>v1734&#45;&gt;v1723</title>
<path fill="none" stroke="black" d="M176.54,-828.12C198.23,-842.11 233.54,-864.91 259.21,-881.48"/>
<polygon fill="black" stroke="black" points="257.3,-884.41 267.6,-886.9 261.1,-878.53 257.3,-884.41"/>
<text text-anchor="middle" x="245.75" y="-853.7" font-family="Times,serif" font-size="14.00">e12</text>
</g>
<!-- v1734&#45;&gt;v1728 -->
<g id="edge15" class="edge">
<title>v1734&#45;&gt;v1728</title>
<path fill="none" stroke="black" d="M179,-802.45C188.81,-796.54 199.75,-788.43 207,-778.5 212.03,-771.61 215.5,-763.11 217.9,-755.01"/>
<polygon fill="black" stroke="black" points="221.24,-756.05 220.24,-745.51 214.45,-754.38 221.24,-756.05"/>
<text text-anchor="middle" x="224.95" y="-765.2" font-family="Times,serif" font-size="14.00">e14</text>
</g>
<!-- v1735&#45;&gt;v1723 -->
<g id="edge37" class="edge">
<title>v1735&#45;&gt;v1723</title>
<path fill="none" stroke="black" d="M362.59,-653.99C366.62,-659.78 370.64,-666.62 373,-673.5 400.88,-754.86 423.19,-797.16 373,-867 364.59,-878.7 351.45,-886.52 338.13,-891.74"/>
<polygon fill="black" stroke="black" points="337.26,-888.34 328.93,-894.89 339.53,-894.96 337.26,-888.34"/>
<text text-anchor="middle" x="412.26" y="-765.2" font-family="Times,serif" font-size="14.00">e36</text>
</g>
<!-- v1735&#45;&gt;v1728 -->
<g id="edge39" class="edge">
<title>v1735&#45;&gt;v1728</title>
<path fill="none" stroke="black" d="M332.46,-652.04C318.47,-662.68 298.27,-677.7 280,-690 272.41,-695.11 264.1,-700.38 256.23,-705.24"/>
<polygon fill="black" stroke="black" points="254.58,-702.15 247.87,-710.34 258.23,-708.12 254.58,-702.15"/>
<text text-anchor="middle" x="313.24" y="-676.7" font-family="Times,serif" font-size="14.00">e38</text>
</g>
</g>
</svg>
