<?xml version="1.0" encoding="UTF-8" standalone="no"?>
<!DOCTYPE svg PUBLIC "-//W3C//DTD SVG 1.1//EN"
 "http://www.w3.org/Graphics/SVG/1.1/DTD/svg11.dtd">
<!-- Generated by graphviz version 12.1.2 (20240928.0832)
 -->
<!-- Title: GraphOfConvexSets Pages: 1 -->
<svg width="4295pt" height="487pt"
 viewBox="0.00 0.00 4294.65 486.50" xmlns="http://www.w3.org/2000/svg" xmlns:xlink="http://www.w3.org/1999/xlink">
<g id="graph0" class="graph" transform="scale(1 1) rotate(0) translate(4 482.5)">
<title>GraphOfConvexSets</title>
<polygon fill="white" stroke="none" points="-4,4 -4,-482.5 4290.65,-482.5 4290.65,4 -4,4"/>
<!-- v2 -->
<g id="node1" class="node">
<title>v2</title>
<ellipse fill="none" stroke="black" cx="1593.78" cy="-460.5" rx="87.18" ry="18"/>
<text text-anchor="middle" x="1593.78" y="-455.45" font-family="Times,serif" font-size="14.00">Subgraph0: Region0</text>
</g>
<!-- v4 -->
<g id="node3" class="node">
<title>v4</title>
<ellipse fill="none" stroke="black" cx="1032.78" cy="-372" rx="87.18" ry="18"/>
<text text-anchor="middle" x="1032.78" y="-366.95" font-family="Times,serif" font-size="14.00">Subgraph0: Region2</text>
</g>
<!-- v2&#45;&gt;v4 -->
<g id="edge1" class="edge">
<title>v2&#45;&gt;v4</title>
<path fill="none" stroke="black" d="M1507.12,-458.07C1331.32,-454.76 947.65,-445.18 928.03,-424.5 912.16,-407.77 931.11,-395.73 957.05,-387.53"/>
<polygon fill="black" stroke="black" points="958,-390.9 966.64,-384.77 956.07,-384.17 958,-390.9"/>
<text text-anchor="middle" x="1049.91" y="-411.2" font-family="Times,serif" font-size="14.00">Subgraph0: Region0 &#45;&gt; Subgraph0: Region2</text>
</g>
<!-- v6 -->
<g id="node5" class="node">
<title>v6</title>
<ellipse fill="none" stroke="black" cx="1594.78" cy="-372" rx="87.18" ry="18"/>
<text text-anchor="middle" x="1594.78" y="-366.95" font-family="Times,serif" font-size="14.00">Subgraph0: Region4</text>
</g>
<!-- v2&#45;&gt;v6 -->
<g id="edge3" class="edge">
<title>v2&#45;&gt;v6</title>
<path fill="none" stroke="black" d="M1514.85,-452.66C1476.56,-446.08 1442.62,-433.19 1462.03,-408 1469.26,-398.63 1490.85,-391.26 1514.57,-385.75"/>
<polygon fill="black" stroke="black" points="1515.08,-389.22 1524.1,-383.67 1513.59,-382.38 1515.08,-389.22"/>
<text text-anchor="middle" x="1583.91" y="-411.2" font-family="Times,serif" font-size="14.00">Subgraph0: Region0 &#45;&gt; Subgraph0: Region4</text>
</g>
<!-- v7 -->
<g id="node6" class="node">
<title>v7</title>
<ellipse fill="none" stroke="black" cx="2013.78" cy="-283.5" rx="87.18" ry="18"/>
<text text-anchor="middle" x="2013.78" y="-278.45" font-family="Times,serif" font-size="14.00">Subgraph0: Region5</text>
</g>
<!-- v2&#45;&gt;v7 -->
<g id="edge5" class="edge">
<title>v2&#45;&gt;v7</title>
<path fill="none" stroke="black" d="M1678.58,-455.96C1779.13,-451.04 1935.94,-440.87 1957.78,-424.5 1976.21,-410.69 1995.77,-349.72 2006.19,-312.95"/>
<polygon fill="black" stroke="black" points="2009.54,-313.98 2008.84,-303.41 2002.79,-312.11 2009.54,-313.98"/>
<text text-anchor="middle" x="2114.8" y="-366.95" font-family="Times,serif" font-size="14.00">Subgraph0: Region0 &#45;&gt; Subgraph0: Region5</text>
</g>
<!-- v3 -->
<g id="node2" class="node">
<title>v3</title>
<ellipse fill="none" stroke="black" cx="2758.78" cy="-195" rx="87.18" ry="18"/>
<text text-anchor="middle" x="2758.78" y="-189.95" font-family="Times,serif" font-size="14.00">Subgraph0: Region1</text>
</g>
<!-- v5 -->
<g id="node4" class="node">
<title>v5</title>
<ellipse fill="none" stroke="black" cx="3673.78" cy="-106.5" rx="87.18" ry="18"/>
<text text-anchor="middle" x="3673.78" y="-101.45" font-family="Times,serif" font-size="14.00">Subgraph0: Region3</text>
</g>
<!-- v3&#45;&gt;v5 -->
<g id="edge7" class="edge">
<title>v3&#45;&gt;v5</title>
<path fill="none" stroke="black" d="M2845.45,-192.63C3027.44,-189.36 3437.61,-179.76 3497.78,-159 3509.76,-154.87 3509.47,-147.68 3521.03,-142.5 3543.43,-132.46 3569.01,-125.16 3592.75,-119.9"/>
<polygon fill="black" stroke="black" points="3593.33,-123.35 3602.39,-117.86 3591.88,-116.5 3593.33,-123.35"/>
<text text-anchor="middle" x="3642.91" y="-145.7" font-family="Times,serif" font-size="14.00">Subgraph0: Region1 &#45;&gt; Subgraph0: Region3</text>
</g>
<!-- v3&#45;&gt;v7 -->
<g id="edge9" class="edge">
<title>v3&#45;&gt;v7</title>
<path fill="none" stroke="black" d="M2677.89,-202.06C2628.71,-207.05 2565.01,-215.85 2510.03,-231 2491.79,-236.03 2489.18,-243.05 2470.78,-247.5 2404.79,-263.45 2223.73,-273.69 2110.32,-278.74"/>
<polygon fill="black" stroke="black" points="2110.23,-275.24 2100.39,-279.18 2110.54,-282.24 2110.23,-275.24"/>
<text text-anchor="middle" x="2631.91" y="-234.2" font-family="Times,serif" font-size="14.00">Subgraph0: Region1 &#45;&gt; Subgraph0: Region5</text>
</g>
<!-- v9 -->
<g id="node8" class="node">
<title>v9</title>
<ellipse fill="none" stroke="black" cx="3009.78" cy="-106.5" rx="87.18" ry="18"/>
<text text-anchor="middle" x="3009.78" y="-101.45" font-family="Times,serif" font-size="14.00">Subgraph0: Region7</text>
</g>
<!-- v3&#45;&gt;v9 -->
<g id="edge11" class="edge">
<title>v3&#45;&gt;v9</title>
<path fill="none" stroke="black" d="M2836.3,-186.45C2868.91,-181.38 2906.66,-172.95 2938.78,-159 2939.96,-158.49 2959.69,-144.16 2978.05,-130.75"/>
<polygon fill="black" stroke="black" points="2979.91,-133.72 2985.92,-124.99 2975.78,-128.07 2979.91,-133.72"/>
<text text-anchor="middle" x="3082.63" y="-145.7" font-family="Times,serif" font-size="14.00">Subgraph0: Region1 &#45;&gt; Subgraph0: Region7</text>
</g>
<!-- v11 -->
<g id="node10" class="node">
<title>v11</title>
<ellipse fill="none" stroke="black" cx="3236.78" cy="-18" rx="87.18" ry="18"/>
<text text-anchor="middle" x="3236.78" y="-12.95" font-family="Times,serif" font-size="14.00">Subgraph0: Region9</text>
</g>
<!-- v3&#45;&gt;v11 -->
<g id="edge13" class="edge">
<title>v3&#45;&gt;v11</title>
<path fill="none" stroke="black" d="M2845.57,-192.68C2967.93,-189.99 3179.27,-182.04 3205.78,-159 3222.24,-144.69 3230.69,-84.4 3234.39,-47.76"/>
<polygon fill="black" stroke="black" points="3237.87,-48.14 3235.32,-37.85 3230.9,-47.48 3237.87,-48.14"/>
<text text-anchor="middle" x="3350.84" y="-101.45" font-family="Times,serif" font-size="14.00">Subgraph0: Region1 &#45;&gt; Subgraph0: Region9</text>
</g>
<!-- v12 -->
<g id="node11" class="node">
<title>v12</title>
<ellipse fill="none" stroke="black" cx="2120.78" cy="-106.5" rx="91.78" ry="18"/>
<text text-anchor="middle" x="2120.78" y="-101.45" font-family="Times,serif" font-size="14.00">Subgraph0: Region10</text>
</g>
<!-- v3&#45;&gt;v12 -->
<g id="edge15" class="edge">
<title>v3&#45;&gt;v12</title>
<path fill="none" stroke="black" d="M2672.1,-192.3C2502.41,-188.57 2141.16,-178.37 2122.28,-159 2116.36,-152.92 2114.62,-144.28 2114.78,-135.8"/>
<polygon fill="black" stroke="black" points="2118.23,-136.42 2115.8,-126.11 2111.27,-135.69 2118.23,-136.42"/>
<text text-anchor="middle" x="2247.53" y="-145.7" font-family="Times,serif" font-size="14.00">Subgraph0: Region1 &#45;&gt; Subgraph0: Region10</text>
</g>
<!-- v4&#45;&gt;v2 -->
<g id="edge2" class="edge">
<title>v4&#45;&gt;v2</title>
<path fill="none" stroke="black" d="M1091.94,-385.55C1116.87,-391.44 1146.02,-399.12 1171.78,-408 1188.9,-413.9 1191.51,-419.95 1209.03,-424.5 1304.17,-449.18 1416.47,-457.08 1495.1,-459.31"/>
<polygon fill="black" stroke="black" points="1494.85,-462.81 1504.94,-459.57 1495.03,-455.81 1494.85,-462.81"/>
<text text-anchor="middle" x="1330.91" y="-411.2" font-family="Times,serif" font-size="14.00">Subgraph0: Region2 &#45;&gt; Subgraph0: Region0</text>
</g>
<!-- v4&#45;&gt;v7 -->
<g id="edge17" class="edge">
<title>v4&#45;&gt;v7</title>
<path fill="none" stroke="black" d="M1118.43,-368.19C1194.93,-364.45 1309.73,-355.82 1407.78,-336 1431.65,-331.17 1436.09,-323.97 1460.03,-319.5 1503.73,-311.35 1772.25,-296.76 1918.7,-289.25"/>
<polygon fill="black" stroke="black" points="1918.58,-292.76 1928.38,-288.76 1918.22,-285.77 1918.58,-292.76"/>
<text text-anchor="middle" x="1581.91" y="-322.7" font-family="Times,serif" font-size="14.00">Subgraph0: Region2 &#45;&gt; Subgraph0: Region5</text>
</g>
<!-- v8 -->
<g id="node7" class="node">
<title>v8</title>
<ellipse fill="none" stroke="black" cx="1409.78" cy="-195" rx="87.18" ry="18"/>
<text text-anchor="middle" x="1409.78" y="-189.95" font-family="Times,serif" font-size="14.00">Subgraph0: Region6</text>
</g>
<!-- v4&#45;&gt;v8 -->
<g id="edge19" class="edge">
<title>v4&#45;&gt;v8</title>
<path fill="none" stroke="black" d="M1108.75,-362.93C1193.41,-352.59 1323.47,-332.23 1361.78,-301.5 1385.8,-282.24 1398.25,-248.33 1404.39,-224.15"/>
<polygon fill="black" stroke="black" points="1407.74,-225.18 1406.57,-214.65 1400.92,-223.61 1407.74,-225.18"/>
<text text-anchor="middle" x="1510.97" y="-278.45" font-family="Times,serif" font-size="14.00">Subgraph0: Region2 &#45;&gt; Subgraph0: Region6</text>
</g>
<!-- v13 -->
<g id="node12" class="node">
<title>v13</title>
<ellipse fill="none" stroke="black" cx="91.78" cy="-283.5" rx="91.78" ry="18"/>
<text text-anchor="middle" x="91.78" y="-278.45" font-family="Times,serif" font-size="14.00">Subgraph0: Region11</text>
</g>
<!-- v4&#45;&gt;v13 -->
<g id="edge21" class="edge">
<title>v4&#45;&gt;v13</title>
<path fill="none" stroke="black" d="M945.45,-371.19C780.4,-370.82 428.68,-366.36 311.28,-336 295.22,-331.84 293.53,-324.75 277.78,-319.5 246.14,-308.95 210.34,-301.26 178.65,-295.83"/>
<polygon fill="black" stroke="black" points="179.56,-292.43 169.13,-294.24 178.42,-299.33 179.56,-292.43"/>
<text text-anchor="middle" x="436.53" y="-322.7" font-family="Times,serif" font-size="14.00">Subgraph0: Region2 &#45;&gt; Subgraph0: Region11</text>
</g>
<!-- v14 -->
<g id="node13" class="node">
<title>v14</title>
<ellipse fill="none" stroke="black" cx="674.78" cy="-283.5" rx="91.78" ry="18"/>
<text text-anchor="middle" x="674.78" y="-278.45" font-family="Times,serif" font-size="14.00">Subgraph0: Region12</text>
</g>
<!-- v4&#45;&gt;v14 -->
<g id="edge23" class="edge">
<title>v4&#45;&gt;v14</title>
<path fill="none" stroke="black" d="M955.22,-363.6C921.69,-358.55 882.59,-350.09 849.28,-336 837.53,-331.03 837.44,-324.7 825.78,-319.5 804.35,-309.93 779.99,-302.82 757.19,-297.6"/>
<polygon fill="black" stroke="black" points="758.14,-294.22 747.62,-295.51 756.65,-301.06 758.14,-294.22"/>
<text text-anchor="middle" x="974.53" y="-322.7" font-family="Times,serif" font-size="14.00">Subgraph0: Region2 &#45;&gt; Subgraph0: Region12</text>
</g>
<!-- v5&#45;&gt;v3 -->
<g id="edge8" class="edge">
<title>v5&#45;&gt;v3</title>
<path fill="none" stroke="black" d="M3594.08,-114.08C3471.33,-124.22 3250.03,-142.5 3250.03,-142.5 3239.64,-146.84 3241.2,-154.7 3230.78,-159 3165.57,-185.91 2975.49,-192.47 2857.39,-193.87"/>
<polygon fill="black" stroke="black" points="2857.66,-190.36 2847.7,-193.97 2857.74,-197.36 2857.66,-190.36"/>
<text text-anchor="middle" x="3371.91" y="-145.7" font-family="Times,serif" font-size="14.00">Subgraph0: Region3 &#45;&gt; Subgraph0: Region1</text>
</g>
<!-- v5&#45;&gt;v7 -->
<g id="edge25" class="edge">
<title>v5&#45;&gt;v7</title>
<path fill="none" stroke="black" d="M3761.4,-106.72C3889.15,-108.5 4103.44,-124.22 4026.78,-213 3958.08,-292.57 3897.55,-238.78 3792.78,-247.5 3462.4,-274.99 2435.41,-280.99 2112.21,-282.21"/>
<polygon fill="black" stroke="black" points="2112.51,-278.71 2102.52,-282.24 2112.53,-285.71 2112.51,-278.71"/>
<text text-anchor="middle" x="4164.78" y="-189.95" font-family="Times,serif" font-size="14.00">Subgraph0: Region3 &#45;&gt; Subgraph0: Region5</text>
</g>
<!-- v10 -->
<g id="node9" class="node">
<title>v10</title>
<ellipse fill="none" stroke="black" cx="3919.78" cy="-18" rx="87.18" ry="18"/>
<text text-anchor="middle" x="3919.78" y="-12.95" font-family="Times,serif" font-size="14.00">Subgraph0: Region8</text>
</g>
<!-- v5&#45;&gt;v10 -->
<g id="edge27" class="edge">
<title>v5&#45;&gt;v10</title>
<path fill="none" stroke="black" d="M3718.74,-90.75C3733.74,-85.16 3750.31,-78.26 3764.78,-70.5 3775.95,-64.51 3776.56,-59.38 3788.03,-54 3806.12,-45.52 3826.6,-38.83 3845.93,-33.66"/>
<polygon fill="black" stroke="black" points="3846.56,-37.12 3855.38,-31.25 3844.82,-30.34 3846.56,-37.12"/>
<text text-anchor="middle" x="3909.91" y="-57.2" font-family="Times,serif" font-size="14.00">Subgraph0: Region3 &#45;&gt; Subgraph0: Region8</text>
</g>
<!-- v5&#45;&gt;v11 -->
<g id="edge29" class="edge">
<title>v5&#45;&gt;v11</title>
<path fill="none" stroke="black" d="M3599.86,-96.64C3572.81,-91.45 3542.59,-83.29 3517.03,-70.5 3506.96,-65.46 3508.07,-58.6 3497.78,-54 3468.31,-40.8 3391.89,-31.51 3329.31,-25.84"/>
<polygon fill="black" stroke="black" points="3329.97,-22.38 3319.7,-24.99 3329.36,-29.36 3329.97,-22.38"/>
<text text-anchor="middle" x="3638.91" y="-57.2" font-family="Times,serif" font-size="14.00">Subgraph0: Region3 &#45;&gt; Subgraph0: Region9</text>
</g>
<!-- v6&#45;&gt;v2 -->
<g id="edge4" class="edge">
<title>v6&#45;&gt;v2</title>
<path fill="none" stroke="black" d="M1664.96,-382.94C1695.63,-390.43 1721.45,-403.19 1705.78,-424.5 1698.74,-434.08 1689.09,-441.11 1678.39,-446.25"/>
<polygon fill="black" stroke="black" points="1677.14,-442.98 1669.25,-450.05 1679.83,-449.44 1677.14,-442.98"/>
<text text-anchor="middle" x="1832.38" y="-411.2" font-family="Times,serif" font-size="14.00">Subgraph0: Region4 &#45;&gt; Subgraph0: Region0</text>
</g>
<!-- v7&#45;&gt;v2 -->
<g id="edge6" class="edge">
<title>v7&#45;&gt;v2</title>
<path fill="none" stroke="black" d="M2088.45,-293.19C2172.05,-305.83 2289.8,-334.14 2240.78,-390 2205.19,-430.57 1862.27,-449.3 1690.63,-456.18"/>
<polygon fill="black" stroke="black" points="1690.7,-452.68 1680.84,-456.57 1690.97,-459.67 1690.7,-452.68"/>
<text text-anchor="middle" x="2374.2" y="-366.95" font-family="Times,serif" font-size="14.00">Subgraph0: Region5 &#45;&gt; Subgraph0: Region0</text>
</g>
<!-- v7&#45;&gt;v3 -->
<g id="edge10" class="edge">
<title>v7&#45;&gt;v3</title>
<path fill="none" stroke="black" d="M2100.82,-281.4C2291.39,-278.57 2730.48,-269.68 2753.78,-247.5 2759.96,-241.62 2762.24,-233.03 2762.67,-224.54"/>
<polygon fill="black" stroke="black" points="2766.18,-224.68 2762.35,-214.8 2759.18,-224.91 2766.18,-224.68"/>
<text text-anchor="middle" x="2883.61" y="-234.2" font-family="Times,serif" font-size="14.00">Subgraph0: Region5 &#45;&gt; Subgraph0: Region1</text>
</g>
<!-- v7&#45;&gt;v4 -->
<g id="edge18" class="edge">
<title>v7&#45;&gt;v4</title>
<path fill="none" stroke="black" d="M1926.68,-285.03C1869.04,-287.81 1792.65,-296.24 1729.03,-319.5 1716.44,-324.1 1716.53,-331.84 1703.78,-336 1677,-344.74 1308.36,-360.23 1129.19,-367.3"/>
<polygon fill="black" stroke="black" points="1129.3,-363.79 1119.44,-367.68 1129.57,-370.78 1129.3,-363.79"/>
<text text-anchor="middle" x="1850.91" y="-322.7" font-family="Times,serif" font-size="14.00">Subgraph0: Region5 &#45;&gt; Subgraph0: Region2</text>
</g>
<!-- v7&#45;&gt;v5 -->
<g id="edge26" class="edge">
<title>v7&#45;&gt;v5</title>
<path fill="none" stroke="black" d="M2100.85,-281.83C2274.14,-279.96 2674.44,-273 3009.78,-247.5 3178.22,-234.69 3652.5,-285.21 3764.78,-159 3778,-144.14 3763.24,-132.57 3742.02,-124.19"/>
<polygon fill="black" stroke="black" points="3743.2,-120.89 3732.61,-120.84 3740.85,-127.49 3743.2,-120.89"/>
<text text-anchor="middle" x="3864.71" y="-189.95" font-family="Times,serif" font-size="14.00">Subgraph0: Region5 &#45;&gt; Subgraph0: Region3</text>
</g>
<!-- v7&#45;&gt;v8 -->
<g id="edge31" class="edge">
<title>v7&#45;&gt;v8</title>
<path fill="none" stroke="black" d="M1929.12,-278.98C1848.15,-274.6 1732.42,-265.4 1691.03,-247.5 1680.69,-243.03 1682.07,-235.6 1671.78,-231 1642.15,-217.74 1565.22,-208.44 1502.35,-202.78"/>
<polygon fill="black" stroke="black" points="1502.96,-199.32 1492.69,-201.94 1502.35,-206.3 1502.96,-199.32"/>
<text text-anchor="middle" x="1812.91" y="-234.2" font-family="Times,serif" font-size="14.00">Subgraph0: Region5 &#45;&gt; Subgraph0: Region6</text>
</g>
<!-- v17 -->
<g id="node16" class="node">
<title>v17</title>
<ellipse fill="none" stroke="black" cx="1775.78" cy="-195" rx="91.78" ry="18"/>
<text text-anchor="middle" x="1775.78" y="-189.95" font-family="Times,serif" font-size="14.00">Subgraph0: Region15</text>
</g>
<!-- v7&#45;&gt;v17 -->
<g id="edge33" class="edge">
<title>v7&#45;&gt;v17</title>
<path fill="none" stroke="black" d="M2097.88,-278.33C2145.26,-274.02 2197.87,-265.27 2212.78,-247.5 2217.5,-241.88 2217.83,-236.32 2212.78,-231 2187.06,-203.87 1913.94,-217.11 1876.78,-213 1868.76,-212.11 1860.42,-211.01 1852.1,-209.79"/>
<polygon fill="black" stroke="black" points="1852.74,-206.34 1842.33,-208.29 1851.68,-213.26 1852.74,-206.34"/>
<text text-anchor="middle" x="2341.69" y="-234.2" font-family="Times,serif" font-size="14.00">Subgraph0: Region5 &#45;&gt; Subgraph0: Region15</text>
</g>
<!-- v8&#45;&gt;v4 -->
<g id="edge20" class="edge">
<title>v8&#45;&gt;v4</title>
<path fill="none" stroke="black" d="M1334.66,-204.4C1257.39,-214.59 1144.18,-234.39 1114.03,-265.5 1091.79,-288.46 1118.99,-310.44 1099.78,-336 1095.74,-341.38 1090.64,-346 1085.05,-349.97"/>
<polygon fill="black" stroke="black" points="1083.24,-346.97 1076.59,-355.22 1086.93,-352.92 1083.24,-346.97"/>
<text text-anchor="middle" x="1235.91" y="-278.45" font-family="Times,serif" font-size="14.00">Subgraph0: Region6 &#45;&gt; Subgraph0: Region2</text>
</g>
<!-- v8&#45;&gt;v7 -->
<g id="edge32" class="edge">
<title>v8&#45;&gt;v7</title>
<path fill="none" stroke="black" d="M1409.69,-213.11C1410.62,-224.7 1413.94,-239.33 1424.03,-247.5 1433.5,-255.15 1753.4,-270.71 1917.99,-278.23"/>
<polygon fill="black" stroke="black" points="1917.43,-281.71 1927.58,-278.67 1917.75,-274.72 1917.43,-281.71"/>
<text text-anchor="middle" x="1545.91" y="-234.2" font-family="Times,serif" font-size="14.00">Subgraph0: Region6 &#45;&gt; Subgraph0: Region5</text>
</g>
<!-- v15 -->
<g id="node14" class="node">
<title>v15</title>
<ellipse fill="none" stroke="black" cx="1305.78" cy="-106.5" rx="91.78" ry="18"/>
<text text-anchor="middle" x="1305.78" y="-101.45" font-family="Times,serif" font-size="14.00">Subgraph0: Region13</text>
</g>
<!-- v8&#45;&gt;v15 -->
<g id="edge35" class="edge">
<title>v8&#45;&gt;v15</title>
<path fill="none" stroke="black" d="M1322.79,-192.86C1262.61,-190.02 1189.97,-181.77 1170.28,-159 1150.97,-136.66 1177.84,-123.98 1212.61,-116.79"/>
<polygon fill="black" stroke="black" points="1212.94,-120.29 1222.12,-115.02 1211.65,-113.41 1212.94,-120.29"/>
<text text-anchor="middle" x="1295.53" y="-145.7" font-family="Times,serif" font-size="14.00">Subgraph0: Region6 &#45;&gt; Subgraph0: Region13</text>
</g>
<!-- v9&#45;&gt;v3 -->
<g id="edge12" class="edge">
<title>v9&#45;&gt;v3</title>
<path fill="none" stroke="black" d="M2945.79,-119.11C2933.53,-121.09 2920.78,-123 2908.78,-124.5 2884.7,-127.52 2707.48,-124.64 2691.03,-142.5 2680.34,-154.11 2690.37,-165 2705.69,-173.75"/>
<polygon fill="black" stroke="black" points="2703.93,-176.78 2714.43,-178.21 2707.12,-170.55 2703.93,-176.78"/>
<text text-anchor="middle" x="2812.91" y="-145.7" font-family="Times,serif" font-size="14.00">Subgraph0: Region7 &#45;&gt; Subgraph0: Region1</text>
</g>
<!-- v10&#45;&gt;v5 -->
<g id="edge28" class="edge">
<title>v10&#45;&gt;v5</title>
<path fill="none" stroke="black" d="M3988.82,-29.35C4021.75,-37.13 4050.33,-50.05 4031.78,-70.5 4014.49,-89.57 3870.94,-98.59 3770.96,-102.6"/>
<polygon fill="black" stroke="black" points="3770.98,-99.1 3761.12,-102.98 3771.25,-106.09 3770.98,-99.1"/>
<text text-anchor="middle" x="4159.47" y="-57.2" font-family="Times,serif" font-size="14.00">Subgraph0: Region8 &#45;&gt; Subgraph0: Region3</text>
</g>
<!-- v11&#45;&gt;v3 -->
<g id="edge14" class="edge">
<title>v11&#45;&gt;v3</title>
<path fill="none" stroke="black" d="M3152.97,-23.24C3003.02,-31.7 2701.48,-52.96 2670.03,-88.5 2648.93,-112.35 2661.16,-135.63 2682.78,-159 2688.28,-164.94 2694.98,-169.95 2702.1,-174.15"/>
<polygon fill="black" stroke="black" points="2700.19,-177.1 2710.66,-178.69 2703.47,-170.92 2700.19,-177.1"/>
<text text-anchor="middle" x="2791.91" y="-101.45" font-family="Times,serif" font-size="14.00">Subgraph0: Region9 &#45;&gt; Subgraph0: Region1</text>
</g>
<!-- v11&#45;&gt;v5 -->
<g id="edge30" class="edge">
<title>v11&#45;&gt;v5</title>
<path fill="none" stroke="black" d="M3236.39,-36.01C3237.12,-47.55 3240.15,-62.17 3250.03,-70.5 3250.03,-70.5 3458.13,-87.69 3582.67,-97.97"/>
<polygon fill="black" stroke="black" points="3582.32,-101.46 3592.57,-98.79 3582.89,-94.48 3582.32,-101.46"/>
<text text-anchor="middle" x="3371.91" y="-57.2" font-family="Times,serif" font-size="14.00">Subgraph0: Region9 &#45;&gt; Subgraph0: Region3</text>
</g>
<!-- v12&#45;&gt;v3 -->
<g id="edge16" class="edge">
<title>v12&#45;&gt;v3</title>
<path fill="none" stroke="black" d="M2211.45,-109.77C2260.61,-113.53 2321.62,-122.35 2372.78,-142.5 2384.66,-147.18 2384.31,-154.57 2396.28,-159 2443.41,-176.43 2571.77,-185.71 2662.31,-190.24"/>
<polygon fill="black" stroke="black" points="2662.05,-193.73 2672.2,-190.72 2662.39,-186.74 2662.05,-193.73"/>
<text text-anchor="middle" x="2521.53" y="-145.7" font-family="Times,serif" font-size="14.00">Subgraph0: Region10 &#45;&gt; Subgraph0: Region1</text>
</g>
<!-- v13&#45;&gt;v4 -->
<g id="edge22" class="edge">
<title>v13&#45;&gt;v4</title>
<path fill="none" stroke="black" d="M48.09,-299.76C27.45,-309.23 9.95,-322.2 23.28,-336 54.59,-368.41 686.69,-371.34 934.41,-371.23"/>
<polygon fill="black" stroke="black" points="934.05,-374.73 944.04,-371.23 934.04,-367.73 934.05,-374.73"/>
<text text-anchor="middle" x="148.53" y="-322.7" font-family="Times,serif" font-size="14.00">Subgraph0: Region11 &#45;&gt; Subgraph0: Region2</text>
</g>
<!-- v57 -->
<g id="node18" class="node">
<title>v57</title>
<ellipse fill="none" stroke="black" cx="91.78" cy="-195" rx="87.18" ry="18"/>
<text text-anchor="middle" x="91.78" y="-189.95" font-family="Times,serif" font-size="14.00">Subgraph2: Region0</text>
</g>
<!-- v13&#45;&gt;v57 -->
<g id="edge40" class="edge">
<title>v13&#45;&gt;v57</title>
<path fill="none" stroke="black" d="M91.78,-265.41C91.78,-253.76 91.78,-238.05 91.78,-224.52"/>
<polygon fill="black" stroke="black" points="95.28,-224.86 91.78,-214.86 88.28,-224.86 95.28,-224.86"/>
<text text-anchor="middle" x="217.03" y="-234.2" font-family="Times,serif" font-size="14.00">Subgraph0: Region11 &#45;&gt; Subgraph2: Region0</text>
</g>
<!-- v14&#45;&gt;v4 -->
<g id="edge24" class="edge">
<title>v14&#45;&gt;v4</title>
<path fill="none" stroke="black" d="M608.87,-296.41C579.09,-304.59 554.02,-317.38 571.28,-336 595.39,-362.01 805.74,-368.79 933.98,-370.49"/>
<polygon fill="black" stroke="black" points="933.81,-373.99 943.85,-370.62 933.89,-366.99 933.81,-373.99"/>
<text text-anchor="middle" x="696.53" y="-322.7" font-family="Times,serif" font-size="14.00">Subgraph0: Region12 &#45;&gt; Subgraph0: Region2</text>
</g>
<!-- v16 -->
<g id="node15" class="node">
<title>v16</title>
<ellipse fill="none" stroke="black" cx="636.78" cy="-195" rx="91.78" ry="18"/>
<text text-anchor="middle" x="636.78" y="-189.95" font-family="Times,serif" font-size="14.00">Subgraph0: Region14</text>
</g>
<!-- v14&#45;&gt;v16 -->
<g id="edge37" class="edge">
<title>v14&#45;&gt;v16</title>
<path fill="none" stroke="black" d="M727.24,-268.32C749.09,-259.7 766.89,-247.22 754.78,-231 747.44,-221.17 737.46,-213.98 726.39,-208.76"/>
<polygon fill="black" stroke="black" points="727.94,-205.61 717.36,-205.06 725.29,-212.09 727.94,-205.61"/>
<text text-anchor="middle" x="887.32" y="-234.2" font-family="Times,serif" font-size="14.00">Subgraph0: Region12 &#45;&gt; Subgraph0: Region14</text>
</g>
<!-- v15&#45;&gt;v8 -->
<g id="edge36" class="edge">
<title>v15&#45;&gt;v8</title>
<path fill="none" stroke="black" d="M1383.28,-116.49C1397.92,-121.82 1411.53,-130.01 1420.78,-142.5 1425.8,-149.27 1425.78,-157.83 1423.7,-166.03"/>
<polygon fill="black" stroke="black" points="1420.44,-164.75 1420.38,-175.34 1427.03,-167.1 1420.44,-164.75"/>
<text text-anchor="middle" x="1550.27" y="-145.7" font-family="Times,serif" font-size="14.00">Subgraph0: Region13 &#45;&gt; Subgraph0: Region6</text>
</g>
<!-- v16&#45;&gt;v14 -->
<g id="edge38" class="edge">
<title>v16&#45;&gt;v14</title>
<path fill="none" stroke="black" d="M551.43,-201.82C509.23,-208.04 471.58,-220.9 493.53,-247.5 505.05,-261.45 541.63,-269.9 578.95,-274.99"/>
<polygon fill="black" stroke="black" points="578.14,-278.42 588.5,-276.21 579.02,-271.47 578.14,-278.42"/>
<text text-anchor="middle" x="622.16" y="-234.2" font-family="Times,serif" font-size="14.00">Subgraph0: Region14 &#45;&gt; Subgraph0: Region12</text>
</g>
<!-- v17&#45;&gt;v7 -->
<g id="edge34" class="edge">
<title>v17&#45;&gt;v7</title>
<path fill="none" stroke="black" d="M1844.39,-207.29C1881.09,-214.01 1922.1,-222.8 1938.78,-231 1948.97,-236.01 1949.13,-240.79 1958.28,-247.5 1964.01,-251.7 1970.24,-255.93 1976.39,-259.92"/>
<polygon fill="black" stroke="black" points="1974.3,-262.75 1984.62,-265.16 1978.06,-256.84 1974.3,-262.75"/>
<text text-anchor="middle" x="2083.53" y="-234.2" font-family="Times,serif" font-size="14.00">Subgraph0: Region15 &#45;&gt; Subgraph0: Region5</text>
</g>
<!-- v56 -->
<g id="node17" class="node">
<title>v56</title>
<ellipse fill="none" stroke="black" cx="1972.78" cy="-195" rx="87.18" ry="18"/>
<text text-anchor="middle" x="1972.78" y="-189.95" font-family="Times,serif" font-size="14.00">Subgraph1: Region0</text>
</g>
<!-- v56&#45;&gt;v12 -->
<g id="edge39" class="edge">
<title>v56&#45;&gt;v12</title>
<path fill="none" stroke="black" d="M1906.81,-182.9C1881.1,-177.12 1855.94,-169.11 1848.28,-159 1843.86,-153.15 1843.44,-148.01 1848.28,-142.5 1859.99,-129.19 1949.95,-119.54 2023.35,-113.78"/>
<polygon fill="black" stroke="black" points="2023.3,-117.3 2033,-113.04 2022.77,-110.32 2023.3,-117.3"/>
<text text-anchor="middle" x="1973.53" y="-145.7" font-family="Times,serif" font-size="14.00">Subgraph1: Region0 &#45;&gt; Subgraph0: Region10</text>
</g>
</g>
</svg>
