<?xml version="1.0" encoding="UTF-8" standalone="no"?>
<!DOCTYPE svg PUBLIC "-//W3C//DTD SVG 1.1//EN"
 "http://www.w3.org/Graphics/SVG/1.1/DTD/svg11.dtd">
<!-- Generated by graphviz version 12.1.2 (20240928.0832)
 -->
<!-- Title: GraphOfConvexSets Pages: 1 -->
<svg width="263pt" height="398pt"
 viewBox="0.00 0.00 262.61 398.00" xmlns="http://www.w3.org/2000/svg" xmlns:xlink="http://www.w3.org/1999/xlink">
<g id="graph0" class="graph" transform="scale(1 1) rotate(0) translate(4 394)">
<title>GraphOfConvexSets</title>
<polygon fill="white" stroke="none" points="-4,4 -4,-394 258.61,-394 258.61,4 -4,4"/>
<!-- v8366 -->
<g id="node1" class="node">
<title>v8366</title>
<ellipse fill="none" stroke="black" cx="176.86" cy="-372" rx="27" ry="18"/>
<text text-anchor="middle" x="176.86" y="-366.95" font-family="Times,serif" font-size="14.00">v_0</text>
</g>
<!-- v8367 -->
<g id="node2" class="node">
<title>v8367</title>
<ellipse fill="none" stroke="black" cx="118.86" cy="-283.5" rx="27" ry="18"/>
<text text-anchor="middle" x="118.86" y="-278.45" font-family="Times,serif" font-size="14.00">v_1</text>
</g>
<!-- v8366&#45;&gt;v8367 -->
<g id="edge1" class="edge">
<title>v8366&#45;&gt;v8367</title>
<path fill="none" stroke="black" d="M155.35,-360.52C145.54,-354.65 134.67,-346.4 128.11,-336 123.86,-329.27 121.43,-321.11 120.08,-313.28"/>
<polygon fill="black" stroke="black" points="123.57,-312.94 118.93,-303.41 116.61,-313.75 123.57,-312.94"/>
<text text-anchor="middle" x="134.48" y="-322.7" font-family="Times,serif" font-size="14.00">e0</text>
</g>
<!-- v8368 -->
<g id="node3" class="node">
<title>v8368</title>
<ellipse fill="none" stroke="black" cx="96.86" cy="-18" rx="27" ry="18"/>
<text text-anchor="middle" x="96.86" y="-12.95" font-family="Times,serif" font-size="14.00">v_2</text>
</g>
<!-- v8366&#45;&gt;v8368 -->
<g id="edge3" class="edge">
<title>v8366&#45;&gt;v8368</title>
<path fill="none" stroke="black" d="M181.92,-353.94C186.61,-336.62 192.86,-308.94 192.86,-284.5 192.86,-284.5 192.86,-284.5 192.86,-105.5 192.86,-70.69 157.58,-46.3 129.8,-32.48"/>
<polygon fill="black" stroke="black" points="131.52,-29.42 120.98,-28.35 128.55,-35.76 131.52,-29.42"/>
<text text-anchor="middle" x="199.23" y="-189.95" font-family="Times,serif" font-size="14.00">e2</text>
</g>
<!-- v8367&#45;&gt;v8366 -->
<g id="edge2" class="edge">
<title>v8367&#45;&gt;v8366</title>
<path fill="none" stroke="black" d="M129.43,-300.26C137.91,-312.92 149.99,-330.93 159.83,-345.61"/>
<polygon fill="black" stroke="black" points="156.9,-347.52 165.37,-353.88 162.71,-343.62 156.9,-347.52"/>
<text text-anchor="middle" x="159.43" y="-322.7" font-family="Times,serif" font-size="14.00">e1</text>
</g>
<!-- v8367&#45;&gt;v8368 -->
<g id="edge5" class="edge">
<title>v8367&#45;&gt;v8368</title>
<path fill="none" stroke="black" d="M100.64,-270.09C91.48,-263.63 80.34,-255.45 70.86,-247.5 34.08,-216.71 19.69,-205.78 9.11,-159 -1.29,-113.04 -8.43,-88.33 23.86,-54 34.01,-43.2 48.19,-35.36 61.35,-29.87"/>
<polygon fill="black" stroke="black" points="62.54,-33.16 70.64,-26.34 60.05,-26.62 62.54,-33.16"/>
<text text-anchor="middle" x="15.48" y="-145.7" font-family="Times,serif" font-size="14.00">e4</text>
</g>
<!-- v8370 -->
<g id="node5" class="node">
<title>v8370</title>
<ellipse fill="none" stroke="black" cx="70.86" cy="-195" rx="27" ry="18"/>
<text text-anchor="middle" x="70.86" y="-189.95" font-family="Times,serif" font-size="14.00">v_4</text>
</g>
<!-- v8367&#45;&gt;v8370 -->
<g id="edge7" class="edge">
<title>v8367&#45;&gt;v8370</title>
<path fill="none" stroke="black" d="M100.71,-269.71C93.55,-263.75 85.9,-256.08 81.11,-247.5 77.21,-240.53 74.77,-232.29 73.26,-224.47"/>
<polygon fill="black" stroke="black" points="76.74,-224.04 71.83,-214.65 69.81,-225.05 76.74,-224.04"/>
<text text-anchor="middle" x="87.48" y="-234.2" font-family="Times,serif" font-size="14.00">e6</text>
</g>
<!-- v8368&#45;&gt;v8366 -->
<g id="edge4" class="edge">
<title>v8368&#45;&gt;v8366</title>
<path fill="none" stroke="black" d="M123.45,-22.64C165.31,-30.02 241.86,-50.98 241.86,-105.5 241.86,-284.5 241.86,-284.5 241.86,-284.5 241.86,-311.46 221.43,-335.38 203.48,-351.19"/>
<polygon fill="black" stroke="black" points="201.57,-348.22 196.12,-357.31 206.05,-353.6 201.57,-348.22"/>
<text text-anchor="middle" x="248.23" y="-189.95" font-family="Times,serif" font-size="14.00">e3</text>
</g>
<!-- v8368&#45;&gt;v8367 -->
<g id="edge6" class="edge">
<title>v8368&#45;&gt;v8367</title>
<path fill="none" stroke="black" d="M108.68,-34.55C118.12,-48.01 130.61,-68.42 135.86,-88.5 150.97,-146.31 137.11,-216.75 127.08,-254.84"/>
<polygon fill="black" stroke="black" points="123.81,-253.54 124.53,-264.11 130.56,-255.4 123.81,-253.54"/>
<text text-anchor="middle" x="148.91" y="-145.7" font-family="Times,serif" font-size="14.00">e5</text>
</g>
<!-- v8369 -->
<g id="node4" class="node">
<title>v8369</title>
<ellipse fill="none" stroke="black" cx="99.86" cy="-106.5" rx="27" ry="18"/>
<text text-anchor="middle" x="99.86" y="-101.45" font-family="Times,serif" font-size="14.00">v_3</text>
</g>
<!-- v8368&#45;&gt;v8369 -->
<g id="edge9" class="edge">
<title>v8368&#45;&gt;v8369</title>
<path fill="none" stroke="black" d="M97.46,-36.35C97.86,-48.06 98.41,-63.79 98.88,-77.28"/>
<polygon fill="black" stroke="black" points="95.37,-77.03 99.21,-86.9 102.36,-76.78 95.37,-77.03"/>
<text text-anchor="middle" x="105" y="-57.2" font-family="Times,serif" font-size="14.00">e8</text>
</g>
<!-- v8368&#45;&gt;v8370 -->
<g id="edge11" class="edge">
<title>v8368&#45;&gt;v8370</title>
<path fill="none" stroke="black" d="M81.52,-33.3C68.8,-46.29 51.66,-66.71 44.36,-88.5 35.42,-115.15 45.84,-146.48 56.12,-168.03"/>
<polygon fill="black" stroke="black" points="52.88,-169.38 60.54,-176.7 59.11,-166.2 52.88,-169.38"/>
<text text-anchor="middle" x="54.11" y="-101.45" font-family="Times,serif" font-size="14.00">e10</text>
</g>
<!-- v8369&#45;&gt;v8368 -->
<g id="edge10" class="edge">
<title>v8369&#45;&gt;v8368</title>
<path fill="none" stroke="black" d="M89.32,-89.8C86.01,-83.99 82.78,-77.19 81.11,-70.5 79.06,-62.36 80.39,-53.61 82.97,-45.66"/>
<polygon fill="black" stroke="black" points="86.16,-47.1 86.67,-36.52 79.67,-44.48 86.16,-47.1"/>
<text text-anchor="middle" x="87.48" y="-57.2" font-family="Times,serif" font-size="14.00">e9</text>
</g>
<!-- v8369&#45;&gt;v8370 -->
<g id="edge13" class="edge">
<title>v8369&#45;&gt;v8370</title>
<path fill="none" stroke="black" d="M97.88,-124.55C96.37,-134.75 93.86,-147.86 89.86,-159 88.8,-161.95 87.52,-164.95 86.13,-167.89"/>
<polygon fill="black" stroke="black" points="83.03,-166.27 81.52,-176.76 89.24,-169.5 83.03,-166.27"/>
<text text-anchor="middle" x="104.01" y="-145.7" font-family="Times,serif" font-size="14.00">e12</text>
</g>
<!-- v8370&#45;&gt;v8367 -->
<g id="edge8" class="edge">
<title>v8370&#45;&gt;v8367</title>
<path fill="none" stroke="black" d="M81.83,-211.76C85.8,-217.69 90.19,-224.55 93.86,-231 98.31,-238.84 102.75,-247.6 106.62,-255.63"/>
<polygon fill="black" stroke="black" points="103.43,-257.06 110.86,-264.62 109.76,-254.08 103.43,-257.06"/>
<text text-anchor="middle" x="108.37" y="-234.2" font-family="Times,serif" font-size="14.00">e7</text>
</g>
<!-- v8370&#45;&gt;v8368 -->
<g id="edge12" class="edge">
<title>v8370&#45;&gt;v8368</title>
<path fill="none" stroke="black" d="M55.3,-180.08C35.17,-160.27 4.14,-122.58 17.36,-88.5 26.25,-65.57 47.65,-47.59 66.01,-35.66"/>
<polygon fill="black" stroke="black" points="67.81,-38.67 74.51,-30.46 64.16,-32.7 67.81,-38.67"/>
<text text-anchor="middle" x="27.11" y="-101.45" font-family="Times,serif" font-size="14.00">e11</text>
</g>
<!-- v8370&#45;&gt;v8369 -->
<g id="edge14" class="edge">
<title>v8370&#45;&gt;v8369</title>
<path fill="none" stroke="black" d="M65.6,-177.2C63.28,-166.84 61.94,-153.49 66.36,-142.5 68.31,-137.63 71.31,-133.05 74.72,-128.91"/>
<polygon fill="black" stroke="black" points="77.21,-131.37 81.56,-121.71 72.13,-126.55 77.21,-131.37"/>
<text text-anchor="middle" x="76.11" y="-145.7" font-family="Times,serif" font-size="14.00">e13</text>
</g>
</g>
</svg>
